<svg width="50" height="50" viewBox="0 0 50 50" fill="none" xmlns="http://www.w3.org/2000/svg">
<path fill-rule="evenodd" clip-rule="evenodd" d="M12.5 3.125H37.5C39.1576 3.125 40.7473 3.78348 41.9194 4.95558C43.0915 6.12769 43.75 7.7174 43.75 9.375V40.625C43.75 42.2826 43.0915 43.8723 41.9194 45.0444C40.7473 46.2165 39.1576 46.875 37.5 46.875H12.5C10.8424 46.875 9.25268 46.2165 8.08058 45.0444C6.90848 43.8723 6.25 42.2826 6.25 40.625V9.375C6.25 7.7174 6.90848 6.12769 8.08058 4.95558C9.25268 3.78348 10.8424 3.125 12.5 3.125V3.125ZM12.5 6.25C11.6712 6.25 10.8763 6.57924 10.2903 7.16529C9.70424 7.75134 9.375 8.5462 9.375 9.375V40.625C9.375 41.4538 9.70424 42.2487 10.2903 42.8347C10.8763 43.4208 11.6712 43.75 12.5 43.75H37.5C38.3288 43.75 39.1237 43.4208 39.7097 42.8347C40.2958 42.2487 40.625 41.4538 40.625 40.625V9.375C40.625 8.5462 40.2958 7.75134 39.7097 7.16529C39.1237 6.57924 38.3288 6.25 37.5 6.25H12.5Z" fill="#797575"/>
<path d="M12.5 17.1875C12.5 16.7731 12.6646 16.3757 12.9576 16.0826C13.2507 15.7896 13.6481 15.625 14.0625 15.625H35.9375C36.3519 15.625 36.7493 15.7896 37.0424 16.0826C37.3354 16.3757 37.5 16.7731 37.5 17.1875V39.0625C37.5 39.4769 37.3354 39.8743 37.0424 40.1674C36.7493 40.4604 36.3519 40.625 35.9375 40.625H14.0625C13.6481 40.625 13.2507 40.4604 12.9576 40.1674C12.6646 39.8743 12.5 39.4769 12.5 39.0625V17.1875Z" fill="#797575"/>
<path fill-rule="evenodd" clip-rule="evenodd" d="M12.5 10.9375C12.5 10.5231 12.6646 10.1257 12.9576 9.83265C13.2507 9.53962 13.6481 9.375 14.0625 9.375H29.6875C30.1019 9.375 30.4993 9.53962 30.7924 9.83265C31.0854 10.1257 31.25 10.5231 31.25 10.9375C31.25 11.3519 31.0854 11.7493 30.7924 12.0424C30.4993 12.3354 30.1019 12.5 29.6875 12.5H14.0625C13.6481 12.5 13.2507 12.3354 12.9576 12.0424C12.6646 11.7493 12.5 11.3519 12.5 10.9375Z" fill="#797575"/>
</svg>
