<svg width="726" height="672" viewBox="0 0 726 672" fill="none" xmlns="http://www.w3.org/2000/svg">
<path d="M361.621 656.571C528.885 656.571 664.479 581.469 664.479 488.826C664.479 396.183 528.885 321.082 361.621 321.082C194.357 321.082 58.7625 396.183 58.7625 488.826C58.7625 581.469 194.357 656.571 361.621 656.571Z" fill="#F0F0F0"/>
<path d="M133.09 541.632L309.508 635.873C310.631 636.407 311.876 636.686 313.138 636.686C314.401 636.686 315.645 636.407 316.768 635.873L550.613 510.881C552.602 509.819 552.602 508.086 550.613 507.024L374.195 412.769C373.07 412.241 371.826 411.966 370.565 411.966C369.304 411.966 368.06 412.241 366.935 412.769L133.163 537.828C131.101 538.944 131.101 540.61 133.09 541.632Z" fill="#E0E0E0"/>
<path d="M582.789 511.217C602.669 511.217 618.784 502.606 618.784 491.985C618.784 481.363 602.669 472.752 582.789 472.752C562.91 472.752 546.794 481.363 546.794 491.985C546.794 502.606 562.91 511.217 582.789 511.217Z" fill="#E0E0E0"/>
<path d="M245.315 544.374C287.384 544.374 321.487 526.147 321.487 503.664C321.487 481.181 287.384 462.954 245.315 462.954C203.247 462.954 169.143 481.181 169.143 503.664C169.143 526.147 203.247 544.374 245.315 544.374Z" fill="#E0E0E0"/>
<path d="M329.691 152.007C321.531 144.279 316.522 145.878 316.623 154.6C316.739 161.052 314.402 159.667 314.402 159.667L309.276 169.344C309.915 170.972 309.915 172.756 309.276 174.384C306.096 181.991 294.756 198.186 286.843 208.266C280.585 200.276 274.802 191.975 269.52 183.402C262.028 171.696 254.666 159.21 240.887 159.654L238.898 187.085C247.421 200.377 253.418 206.439 272.889 226.948C275.997 230.21 279.517 233.116 283.372 235.603C289.805 239.541 298.589 230.657 303.308 223.346C309.494 213.75 315.912 200.216 323.433 185.795C326.25 180.419 329.648 174.411 331.375 169.976C335.819 158.391 332.61 154.762 329.691 152.007Z" fill="#ECB197"/>
<path d="M332.653 165.877L329.328 162.14L330.446 158.391L327.992 162.517L314.924 159.829C314.788 159.832 314.654 159.804 314.532 159.748H314.445L314.126 160.326C314.126 161.186 314.779 162.409 316.957 164.089C318.809 165.708 321.249 166.624 323.796 166.656C324.345 166.657 324.89 166.57 325.408 166.401L331.419 169.72C331.913 168.309 332.334 167.046 332.653 165.877Z" fill="#C2917C"/>
<path d="M280.628 141.779C280.628 143.754 280.555 147.706 287.351 150.528C294.146 153.35 301.711 150.273 301.711 146.12L280.628 141.779Z" fill="#EBEBEB"/>
<path d="M344.632 170.191L298.749 145.676L298.096 149.184L297.907 150.528L341.002 173.551C341.632 173.907 342.344 174.123 343.079 174.182C343.815 174.24 344.556 174.139 345.242 173.887C345.416 173.809 345.564 173.689 345.671 173.54C345.778 173.391 345.841 173.219 345.852 173.04C345.852 172.771 345.852 171.777 345.852 171.522C345.852 171.145 345.431 170.688 344.632 170.191Z" fill="#EBEBEB"/>
<path d="M285.26 147.034C290.081 149.614 296.644 150.3 299.896 148.552C303.149 146.805 301.9 143.297 297.079 140.717C292.259 138.136 285.71 137.438 282.443 139.185C279.176 140.932 280.439 144.44 285.26 147.034Z" fill="#F5F5F5"/>
<path d="M295.119 147.625L298.749 145.676L344.647 170.191C345.983 170.917 346.258 171.925 345.242 172.462C344.557 172.717 343.817 172.821 343.081 172.765C342.345 172.709 341.633 172.495 341.002 172.14L295.119 147.625Z" fill="#F5F5F5"/>
<path d="M298.081 149.211L297.907 150.622L341.002 173.645V172.14L298.081 149.211Z" fill="#E0E0E0"/>
<path d="M259.908 214.623L241.685 191.775C241.685 191.775 230.447 171.239 238.404 159.264C238.404 159.264 252.154 158.337 259.472 167.597C265.556 175.325 274.428 187.864 280.628 197.313C278.973 205.094 270.217 212.796 259.908 214.623Z" fill="#37474F"/>
<path d="M292.709 147.84C298.226 147.84 299.112 146.026 298.894 143.808C298.676 141.591 295.801 138.432 290.458 137.585C285.115 136.739 281.746 138.284 281.151 140.273C280.236 143.378 287.177 147.84 292.709 147.84Z" fill="#FF6584"/>
<path opacity="0.1" d="M298.894 143.808C298.807 143.166 298.575 142.547 298.212 141.994C297.878 143.875 294.8 145.421 290.647 144.991C285.855 144.494 281.354 141.698 281.615 139.427C281.409 139.692 281.252 139.987 281.151 140.3C280.28 143.445 287.177 147.894 292.767 147.894C298.357 147.894 299.112 146.012 298.894 143.808Z" fill="black"/>
<path d="M311.803 153.955C311.327 153.127 310.519 152.504 309.553 152.22C308.586 151.936 307.538 152.014 306.633 152.437C305.878 152.88 307.113 154.547 307.446 157.813C307.882 162.073 307.548 165.016 309.203 169.331L314.039 160.393C313.095 157.907 312.703 155.151 311.803 153.955Z" fill="#ECB197"/>
<path d="M320.892 147.034C317.306 147.034 314.358 148.378 313.153 150.313C311.948 152.249 312.79 158.377 314.039 160.46C315.287 162.544 322.039 165.917 324.841 165.232C327.644 164.546 330.286 158.391 330.286 158.391L320.892 147.034Z" fill="#ECB197"/>
<path d="M286.218 124.186C280.41 120.705 277.84 114.684 281.601 108.34C285.362 101.996 288.483 95.7736 283.851 90.7874C285.725 91.043 287.478 91.7961 288.898 92.9555C290.318 94.1149 291.344 95.6307 291.852 97.3192C293.986 103.394 290.705 108.878 287.496 112.883C284.287 116.888 283.605 121.431 286.218 124.186Z" fill="#F0F0F0"/>
<path d="M296.832 128.554C291.663 125.422 289.326 120.006 292.694 114.307C296.063 108.609 298.88 103.018 294.712 98.5287C296.392 98.7636 297.963 99.4429 299.236 100.485C300.508 101.527 301.429 102.887 301.885 104.402C303.802 109.859 300.854 114.791 297.936 118.393C295.017 121.995 294.495 126.081 296.832 128.554Z" fill="#F0F0F0"/>
<path d="M203.294 468.572H186.858V495.708H203.294V468.572Z" fill="#ECB197"/>
<path d="M240.611 468.599L256.873 469.137L257.686 440.738L240.611 440.2V468.599Z" fill="#ECB197"/>
<path d="M184.927 240.818C184.927 255.051 187.192 369.64 187.192 369.64C186.829 373.74 182.836 381.293 183.707 397.031C184.883 418.414 186.437 481.34 186.437 481.34C189.091 482.604 192.022 483.29 195.007 483.346C197.991 483.402 200.95 482.826 203.657 481.663C203.657 481.663 216.203 396.198 218.976 375.003C221.386 356.523 228.545 303.448 228.545 303.448L235.964 367.571C234.176 375.353 233.531 383.323 234.048 391.265C234.774 401.063 239.754 458.842 239.754 458.842C239.754 458.842 247.014 463.613 257.599 460.186C257.599 460.186 266.398 376.575 266.587 367.598C266.79 357.343 261.447 240.684 261.447 240.684L184.927 240.818Z" fill="#FF6584"/>
<path opacity="0.2" d="M184.927 240.818C184.927 255.051 187.192 369.64 187.192 369.64C186.829 373.74 182.836 381.293 183.707 397.031C184.883 418.414 186.437 481.34 186.437 481.34C189.091 482.604 192.022 483.29 195.007 483.346C197.991 483.402 200.95 482.826 203.657 481.663C203.657 481.663 216.203 396.198 218.976 375.003C221.386 356.523 228.545 303.448 228.545 303.448L235.964 367.571C234.176 375.353 233.531 383.323 234.048 391.265C234.774 401.063 239.754 458.842 239.754 458.842C239.754 458.842 247.014 463.613 257.599 460.186C257.599 460.186 266.398 376.575 266.587 367.598C266.79 357.343 261.447 240.684 261.447 240.684L184.927 240.818Z" fill="black"/>
<path d="M203.28 487.872V485.601C204.863 486.259 210.54 501.809 217.088 507.548C222.272 512.105 229.343 517.373 231.144 522.453C233.017 527.749 221.285 530.665 216.45 529.832C210.816 528.878 201.058 525.047 198.605 521.513C196.151 517.978 195.018 512.75 193.029 510.142C191.04 507.535 184.404 502.549 183.33 499.538C182.734 497.898 183.431 494.283 184.259 491.219C185.028 488.423 185.856 485.345 186.843 485.601V487.335C188.034 488.611 191.345 489.875 195.062 490.023C197.472 490.117 203.28 489.646 203.28 487.872Z" fill="#37474F"/>
<path d="M257.004 464.312C257.861 464.312 258.543 465.481 260.402 467.43C262.652 469.782 269.927 473.827 273.557 475.588C279.655 478.518 291.489 483.047 296.789 485.372C300.143 486.824 299.983 490.748 296.527 492.939C293.072 495.13 284.708 496.756 274.675 494.592C269.215 493.409 262.405 489.78 257.599 488.813C253.243 487.926 241.076 487.469 237.75 485.291C234.425 483.114 235.761 478.357 236.705 474.311C237.721 469.889 239.014 462.981 240.524 463.29V464.809C242.484 467.672 252.575 468.841 256.873 466.731L257.004 464.312Z" fill="#37474F"/>
<path opacity="0.2" d="M229.242 297.024C236.729 294.695 243.532 290.794 249.12 285.627C249.12 285.627 247.522 292.885 232.654 300.102L235.224 362.396L228.501 303.448L229.242 297.024Z" fill="black"/>
<path d="M193.581 161.455C193.581 161.455 178.872 165.608 179.729 186.991L185.377 224.448L184.404 270.534C195.773 282.469 246.201 281.595 263.451 269.58C263.451 269.58 261.505 209.207 260.329 185.969C259.501 169.452 255.407 161.132 237.867 159.318L216.29 160.191L193.581 161.455Z" fill="#455A64"/>
<path d="M193.581 161.455C180.963 163.121 179.061 164.842 166.907 183.738C163.219 189.437 159.313 195.7 156.148 200.74C151.792 188.147 144.184 165.796 145.476 160.286C145.636 159.64 146.231 158.243 146.681 157.154C147.748 154.457 148.398 151.633 148.612 148.768C148.762 147.554 149 146.35 149.324 145.166C149.444 144.856 149.479 144.523 149.425 144.198C149.313 143.907 149.084 143.666 148.786 143.526C148.375 143.355 147.921 143.291 147.474 143.341C147.026 143.39 146.601 143.552 146.245 143.808C144.474 144.991 143.98 147.249 143.124 148.969C142.941 149.43 142.608 149.828 142.171 150.107C141.734 150.386 141.215 150.533 140.684 150.528C139.99 150.548 139.305 150.37 138.724 150.017C136.401 148.673 136.749 145.77 137.141 144.426C137.757 142.699 139.019 141.231 140.699 140.287C141.071 140.037 141.5 139.87 141.953 139.797C142.406 139.725 142.871 139.75 143.312 139.87C144.547 140.314 144.764 141.658 145.766 142.303C146.091 142.536 146.498 142.649 146.908 142.622C147.317 142.595 147.702 142.428 147.988 142.155C148.189 141.898 148.314 141.597 148.351 141.281C148.465 140.082 148.17 138.88 147.509 137.844C146.848 136.807 145.852 135.989 144.663 135.502C143.461 135.045 142.171 134.82 140.872 134.844C139.574 134.867 138.294 135.137 137.112 135.637C136.401 135.872 135.751 136.242 135.203 136.723C134.655 137.205 134.223 137.787 133.932 138.432C133.715 134.602 133.468 132.277 133.54 128.137C133.584 123.648 133.86 118.272 130.23 120.288C127.079 122.049 127.776 139.628 127.776 139.628C126.733 135.718 126.187 131.708 126.15 127.68C126.005 124.347 126.672 121.068 123.739 121.269C119.108 121.592 121.997 140.488 121.997 140.488C119.427 134.817 119.775 125.704 117.017 126.054C114.258 126.403 114.272 130.207 115.478 139.494C116.378 146.321 117.467 153.915 121.286 159.869C122.436 161.614 123.409 163.454 124.19 165.366C127.094 174.209 128.095 183.832 129.751 192.918C132.074 205.686 135.21 226.048 145.999 235.63C147.743 237.463 150.138 238.659 152.75 239.004C154.272 239.134 155.799 238.809 157.106 238.076C167.111 231.625 174.24 219.892 179.075 212.54C183.62 205.551 187.105 201.479 190.401 195.781C197.632 183.322 196.398 168.081 193.581 161.455Z" fill="#ECB197"/>
<path d="M156.148 200.74C158.471 206.949 160.359 213.589 159.299 220.631C159.299 220.631 164.628 209.006 158.05 197.783L156.148 200.74Z" fill="#C2917C"/>
<path d="M196.572 161.28C184.52 161.428 176.099 164.828 169.347 176.629C162.595 188.429 156.685 198.549 156.685 198.549C156.685 198.549 162.493 215.174 176.839 217.862L194.016 192.837C194.016 192.837 202.932 181.077 196.572 161.28Z" fill="#37474F"/>
<path d="M209.829 117.076C209.829 129.347 220.138 139.279 232.857 139.279C245.577 139.279 253.098 129.064 255.886 117.076C260.982 95.1553 245.577 94.8865 232.857 94.8865C220.138 94.8865 209.829 104.832 209.829 117.076Z" fill="#263238"/>
<path d="M198.082 126.067C198.082 126.067 201.61 142.061 203.033 144.682C203.953 146.29 205.517 147.501 207.389 148.055L207.142 136.806L198.082 126.067Z" fill="#263238"/>
<path d="M202.525 103.139C202.525 103.139 199.984 102.561 197.298 106.445C194.989 109.778 194.466 117.278 198.082 126.067L204.732 126.793L202.525 103.139Z" fill="#263238"/>
<path d="M200.071 106.378L191.911 106.526C191.839 106.03 191.881 105.526 192.034 105.047C192.187 104.567 192.447 104.123 192.798 103.742C193.148 103.362 193.582 103.054 194.069 102.839C194.557 102.624 195.088 102.506 195.628 102.494C196.76 102.508 197.844 102.915 198.667 103.634C199.49 104.354 199.991 105.333 200.071 106.378V106.378Z" fill="#263238"/>
<path d="M199.069 104.59L193.029 99.2142C193.378 98.8353 193.808 98.5276 194.292 98.3104C194.776 98.0932 195.304 97.9713 195.842 97.9523C196.379 97.9334 196.915 98.0178 197.416 98.2003C197.916 98.3828 198.371 98.6594 198.75 99.0126C199.571 99.7243 200.062 100.702 200.122 101.742C200.181 102.782 199.804 103.802 199.069 104.59Z" fill="#263238"/>
<path d="M206.736 126.807C205.4 127.573 203.498 125.1 201.857 123.447C200.216 121.793 195.047 120.221 192.361 125.651C189.675 131.08 194.249 136.47 198.082 138.244C204.95 141.402 207.128 136.806 207.128 136.806L207.68 162.14C217.364 175.997 239.435 177.811 231.391 161.482V153.767C234.633 154.269 237.925 154.431 241.206 154.251C246.564 153.458 249.918 149.372 251.559 143.781C254.173 134.803 255.16 127.546 253.011 109.886C250.586 90.532 227.223 90.3304 214.606 97.9778C201.988 105.625 206.736 126.807 206.736 126.807Z" fill="#ECB197"/>
<path d="M235.848 106.862C230.273 106.351 224.755 105.303 219.165 104.913C217.959 104.777 216.736 104.832 215.549 105.074C211.193 106.149 211.818 110.759 211.193 113.985C210.017 119.522 209.044 128.93 206.837 128.97C206.169 128.97 203.614 124.938 201.959 123.447C200.884 122.492 200.695 120.463 200.507 119.199C200.086 116.901 199.853 114.576 199.664 112.251C199.505 110.289 199.287 108.219 199.287 106.311C199.184 104.089 199.374 101.864 199.853 99.6846C200.387 97.8251 201.41 96.1168 202.83 94.7118L203.265 94.2817C206.069 91.5623 209.478 89.4391 213.255 88.059C218.635 86.1897 224.279 85.049 230.011 84.6721C235.819 84.1211 241.627 83.8254 247.232 82.7502C247.553 82.6564 247.898 82.6564 248.219 82.7502C248.45 82.8697 248.645 83.0402 248.787 83.2467C248.929 83.4531 249.013 83.6889 249.033 83.9329C249.26 85.1583 249.108 86.4183 248.594 87.5671C248.08 88.7159 247.225 89.7065 246.129 90.4244C249.991 90.7067 254.419 88.8385 258.122 87.9112C258.423 87.7947 258.747 87.7347 259.073 87.7347C259.4 87.7347 259.723 87.7947 260.024 87.9112C260.392 88.1556 260.654 88.5127 260.765 88.9192C261.031 89.8496 261.065 90.8238 260.866 91.7684C260.519 94.6048 259.372 97.3069 257.541 99.6039C254.674 103.066 250.618 105.522 246.041 106.566C242.68 107.147 239.242 107.247 235.848 106.862Z" fill="#263238"/>
<path d="M231.376 153.767C231.376 153.767 219.412 151.442 215.23 149.305C212.734 148.051 210.708 146.125 209.422 143.781C210.047 146.127 211.162 148.337 212.703 150.286C215.767 154.063 231.347 156.831 231.347 156.831L231.376 153.767Z" fill="#C2917C"/>
<path d="M228.501 123.917C228.465 124.35 228.292 124.763 228.005 125.107C227.719 125.45 227.33 125.709 226.887 125.851C226.443 125.992 225.965 126.012 225.51 125.906C225.055 125.8 224.644 125.573 224.326 125.254C224.008 124.935 223.798 124.537 223.721 124.109C223.644 123.681 223.703 123.241 223.892 122.844C224.081 122.446 224.391 122.109 224.784 121.872C225.177 121.635 225.637 121.51 226.105 121.511C226.767 121.539 227.389 121.807 227.838 122.258C228.287 122.708 228.525 123.305 228.501 123.917V123.917Z" fill="#263238"/>
<path d="M224.653 114.348L219.513 117.036C219.145 116.361 219.065 115.583 219.288 114.856C219.511 114.129 220.022 113.506 220.719 113.111C221.061 112.935 221.439 112.827 221.829 112.794C222.219 112.762 222.612 112.805 222.982 112.921C223.353 113.038 223.693 113.225 223.981 113.471C224.269 113.716 224.498 114.015 224.653 114.348V114.348Z" fill="#263238"/>
<path d="M230.287 139.884L235.761 141.859C235.646 142.203 235.458 142.522 235.207 142.797C234.957 143.072 234.649 143.298 234.302 143.461C233.955 143.624 233.577 143.721 233.189 143.746C232.801 143.771 232.412 143.723 232.044 143.607C231.297 143.306 230.701 142.755 230.375 142.065C230.05 141.374 230.018 140.595 230.287 139.884V139.884Z" fill="#C2917C"/>
<path d="M250.484 116.391L245.809 112.896C246.02 112.594 246.297 112.336 246.623 112.14C246.948 111.944 247.315 111.814 247.699 111.758C248.083 111.702 248.475 111.722 248.85 111.816C249.225 111.911 249.574 112.077 249.875 112.305C250.507 112.793 250.921 113.483 251.033 114.238C251.146 114.994 250.95 115.761 250.484 116.391Z" fill="#263238"/>
<path d="M248.437 123.258C248.401 123.691 248.228 124.104 247.941 124.448C247.655 124.791 247.266 125.05 246.823 125.192C246.379 125.334 245.901 125.353 245.446 125.247C244.991 125.141 244.58 124.915 244.262 124.596C243.944 124.277 243.734 123.878 243.657 123.45C243.58 123.022 243.639 122.582 243.828 122.185C244.017 121.788 244.327 121.45 244.72 121.213C245.113 120.977 245.572 120.851 246.041 120.853C246.703 120.88 247.325 121.149 247.774 121.599C248.222 122.05 248.461 122.646 248.437 123.258V123.258Z" fill="#263238"/>
<path d="M235.602 121.404L235.877 135.421L244.473 133.594L235.602 121.404Z" fill="#C2917C"/>
<path d="M333.35 604.061C333.334 604.443 333.441 604.822 333.658 605.147C333.876 605.473 334.193 605.731 334.57 605.889C335.598 606.379 336.738 606.635 337.895 606.635C339.052 606.635 340.192 606.379 341.22 605.889C341.617 605.731 341.965 605.484 342.232 605.169C342.498 604.854 342.674 604.482 342.745 604.088V604.088V442.176L333.35 442.297V604.061Z" fill="#455A64"/>
<path d="M338.403 606.587C339.389 606.543 340.351 606.295 341.22 605.862C341.617 605.704 341.965 605.457 342.232 605.142C342.498 604.827 342.674 604.455 342.745 604.061V604.061V442.176H338.519L338.403 606.587Z" fill="#37474F"/>
<path d="M334.7 443.977C335.732 444.458 336.871 444.708 338.026 444.708C339.18 444.708 340.319 444.458 341.351 443.977C343.195 442.982 343.209 441.397 341.351 440.429C340.322 439.938 339.182 439.683 338.026 439.683C336.869 439.683 335.729 439.938 334.7 440.429C332.9 441.41 332.871 443.009 334.7 443.977Z" fill="#263238"/>
<path d="M523.867 508.032C523.851 508.415 523.958 508.793 524.175 509.119C524.393 509.444 524.71 509.702 525.087 509.86C526.118 510.341 527.257 510.591 528.412 510.591C529.567 510.591 530.706 510.341 531.737 509.86C532.136 509.701 532.485 509.452 532.752 509.135C533.018 508.817 533.194 508.443 533.262 508.046V508.046V346L523.867 346.12V508.032Z" fill="#455A64"/>
<path d="M528.92 510.478C529.904 510.438 530.867 510.195 531.737 509.766C532.136 509.607 532.485 509.358 532.752 509.04C533.018 508.723 533.194 508.349 533.261 507.951V507.951V346H529.051L528.92 510.478Z" fill="#37474F"/>
<path d="M525.217 347.867C526.246 348.358 527.386 348.614 528.542 348.614C529.699 348.614 530.839 348.358 531.868 347.867C533.712 346.886 533.726 345.287 531.868 344.319C530.836 343.838 529.697 343.588 528.542 343.588C527.388 343.588 526.249 343.838 525.217 344.319C523.417 345.314 523.388 346.9 525.217 347.867Z" fill="#263238"/>
<path d="M149.324 535.436C149.311 535.818 149.42 536.195 149.637 536.52C149.854 536.845 150.169 537.104 150.543 537.264C151.572 537.755 152.712 538.01 153.868 538.01C155.025 538.01 156.165 537.755 157.194 537.264C157.577 537.098 157.91 536.847 158.164 536.532C158.417 536.218 158.583 535.851 158.646 535.463V535.463V373.484L149.251 373.605L149.324 535.436Z" fill="#455A64"/>
<path d="M154.377 537.963C155.363 537.921 156.326 537.673 157.193 537.237C157.577 537.071 157.91 536.82 158.164 536.506C158.417 536.191 158.583 535.824 158.645 535.436V535.436V373.484H154.435L154.377 537.963Z" fill="#37474F"/>
<path d="M150.674 375.353C151.705 375.833 152.844 376.084 153.999 376.084C155.154 376.084 156.293 375.833 157.324 375.353C159.168 374.358 159.197 372.772 157.324 371.791C156.298 371.303 155.16 371.048 154.006 371.048C152.852 371.048 151.715 371.303 150.689 371.791C148.874 372.785 148.859 374.371 150.674 375.353Z" fill="#263238"/>
<path d="M129.475 374.654V373.31C129.543 372.149 129.906 371.019 130.534 370.013C131.162 369.006 132.038 368.151 133.09 367.517L366.935 242.525C368.058 241.991 369.302 241.712 370.565 241.712C371.827 241.712 373.072 241.991 374.195 242.525L550.613 336.766C551.665 337.401 552.541 338.256 553.169 339.262C553.797 340.269 554.16 341.398 554.228 342.559V343.903C554.16 345.063 553.797 346.193 553.169 347.199C552.541 348.206 551.665 349.061 550.613 349.695L316.841 474.755C315.716 475.282 314.472 475.557 313.211 475.557C311.95 475.557 310.706 475.282 309.581 474.755L133.09 380.46C132.039 379.821 131.165 378.963 130.537 377.954C129.909 376.946 129.545 375.816 129.475 374.654V374.654Z" fill="#F9A825"/>
<g opacity="0.5">
<path opacity="0.5" d="M129.475 374.654V373.31C129.543 372.149 129.906 371.019 130.534 370.013C131.162 369.006 132.038 368.151 133.09 367.517L366.935 242.525C368.058 241.991 369.302 241.712 370.565 241.712C371.827 241.712 373.072 241.991 374.195 242.525L550.613 336.766C551.665 337.401 552.541 338.256 553.169 339.262C553.797 340.269 554.16 341.398 554.228 342.559V343.903C554.16 345.063 553.797 346.193 553.169 347.199C552.541 348.206 551.665 349.061 550.613 349.695L316.841 474.755C315.716 475.282 314.472 475.557 313.211 475.557C311.95 475.557 310.706 475.282 309.581 474.755L133.09 380.46C132.039 379.821 131.165 378.963 130.537 377.954C129.909 376.946 129.545 375.816 129.475 374.654V374.654Z" fill="black"/>
</g>
<path d="M313.122 466.449V475.494C311.865 475.507 310.624 475.235 309.507 474.701L133.103 380.46C132.05 379.826 131.174 378.971 130.545 377.964C129.917 376.958 129.555 375.828 129.488 374.667V373.323C129.538 372.289 129.822 371.276 130.323 370.35C130.823 369.423 131.528 368.605 132.392 367.947C131.085 368.968 131.303 370.42 133.06 371.374L309.463 465.616C310.584 466.182 311.845 466.47 313.122 466.449V466.449Z" fill="#F9A825"/>
<g opacity="0.55">
<path opacity="0.55" d="M313.122 466.449V475.494C311.865 475.507 310.624 475.235 309.507 474.701L133.103 380.46C132.05 379.826 131.174 378.971 130.545 377.964C129.917 376.958 129.555 375.828 129.488 374.667V373.323C129.537 372.288 129.821 371.275 130.322 370.349C130.822 369.423 131.527 368.604 132.392 367.947C131.085 368.968 131.303 370.42 133.06 371.374L309.463 465.616C310.584 466.182 311.845 466.47 313.122 466.449V466.449Z" fill="black"/>
</g>
<path d="M133.09 371.4L309.508 465.641C310.633 466.169 311.877 466.444 313.138 466.444C314.4 466.444 315.643 466.169 316.768 465.641L550.613 340.649C552.602 339.587 552.602 337.853 550.613 336.792L374.195 242.55C373.072 242.016 371.827 241.738 370.565 241.738C369.302 241.738 368.058 242.016 366.935 242.55L133.163 367.542C131.101 368.591 131.101 370.324 133.09 371.4Z" fill="#F9A825"/>
<g opacity="0.4">
<path opacity="0.4" d="M133.09 371.4L309.508 465.641C310.633 466.169 311.877 466.444 313.138 466.444C314.4 466.444 315.643 466.169 316.768 465.641L550.613 340.649C552.602 339.587 552.602 337.853 550.613 336.792L374.195 242.55C373.072 242.016 371.827 241.738 370.565 241.738C369.302 241.738 368.058 242.016 366.935 242.55L133.163 367.542C131.101 368.591 131.101 370.324 133.09 371.4Z" fill="black"/>
</g>
<path opacity="0.15" d="M405.965 320.06L434.017 305.088C434.799 304.717 435.665 304.523 436.544 304.523C437.423 304.523 438.289 304.717 439.07 305.088L509.768 342.841C510.069 342.939 510.329 343.121 510.514 343.361C510.698 343.602 510.797 343.89 510.797 344.185C510.797 344.48 510.698 344.768 510.514 345.009C510.329 345.249 510.069 345.431 509.768 345.529L481.701 360.528C480.919 360.892 480.057 361.082 479.182 361.082C478.307 361.082 477.444 360.892 476.663 360.528L405.965 322.762C405.651 322.674 405.377 322.495 405.182 322.252C404.987 322.009 404.882 321.714 404.882 321.411C404.882 321.108 404.987 320.813 405.182 320.57C405.377 320.327 405.651 320.148 405.965 320.06Z" fill="black"/>
<path d="M429.676 318.152C429.676 322.184 426.133 326.74 421.777 326.74C417.421 326.74 413.878 322.184 413.878 318.152C413.878 316.213 414.71 314.353 416.192 312.982C417.673 311.611 419.682 310.84 421.777 310.84C423.872 310.84 425.881 311.611 427.362 312.982C428.844 314.353 429.676 316.213 429.676 318.152V318.152Z" fill="#F9A825"/>
<path opacity="0.6" d="M429.676 318.152C429.676 322.184 426.133 326.74 421.777 326.74C417.421 326.74 413.878 322.184 413.878 318.152C413.878 316.213 414.71 314.353 416.192 312.982C417.673 311.611 419.682 310.84 421.777 310.84C423.872 310.84 425.881 311.611 427.362 312.982C428.844 314.353 429.676 316.213 429.676 318.152V318.152Z" fill="black"/>
<path d="M443.833 325.718C443.833 329.75 440.29 334.306 435.934 334.306C431.578 334.306 428.035 329.75 428.035 325.718C428.035 323.779 428.867 321.92 430.349 320.548C431.83 319.177 433.839 318.407 435.934 318.407C438.029 318.407 440.038 319.177 441.519 320.548C443.001 321.92 443.833 323.779 443.833 325.718Z" fill="#F9A825"/>
<path opacity="0.6" d="M443.833 325.718C443.833 329.75 440.29 334.306 435.934 334.306C431.578 334.306 428.035 329.75 428.035 325.718C428.035 323.779 428.867 321.92 430.349 320.548C431.83 319.177 433.839 318.407 435.934 318.407C438.029 318.407 440.038 319.177 441.519 320.548C443.001 321.92 443.833 323.779 443.833 325.718Z" fill="black"/>
<path d="M457.99 333.312C457.99 337.344 454.447 341.9 450.091 341.9C445.735 341.9 442.192 337.344 442.192 333.312C442.192 331.373 443.024 329.513 444.506 328.142C445.987 326.771 447.996 326.001 450.091 326.001C452.186 326.001 454.195 326.771 455.676 328.142C457.158 329.513 457.99 331.373 457.99 333.312V333.312Z" fill="#F9A825"/>
<path opacity="0.6" d="M457.99 333.312C457.99 337.344 454.447 341.9 450.091 341.9C445.735 341.9 442.192 337.344 442.192 333.312C442.192 331.373 443.024 329.513 444.506 328.142C445.987 326.771 447.996 326.001 450.091 326.001C452.186 326.001 454.195 326.771 455.676 328.142C457.158 329.513 457.99 331.373 457.99 333.312V333.312Z" fill="black"/>
<path d="M472.147 340.852C472.147 344.884 468.604 349.453 464.248 349.453C459.892 349.453 456.349 344.897 456.349 340.852C456.349 338.913 457.181 337.053 458.663 335.682C460.144 334.311 462.153 333.541 464.248 333.541C466.343 333.541 468.352 334.311 469.833 335.682C471.315 337.053 472.147 338.913 472.147 340.852V340.852Z" fill="#F9A825"/>
<path opacity="0.6" d="M472.147 340.852C472.147 344.884 468.604 349.453 464.248 349.453C459.892 349.453 456.349 344.897 456.349 340.852C456.349 338.913 457.181 337.053 458.663 335.682C460.144 334.311 462.153 333.541 464.248 333.541C466.343 333.541 468.352 334.311 469.833 335.682C471.315 337.053 472.147 338.913 472.147 340.852V340.852Z" fill="black"/>
<path d="M486.304 348.445C486.304 352.477 482.761 357.034 478.405 357.034C474.049 357.034 470.506 352.477 470.506 348.445C470.506 346.506 471.338 344.647 472.819 343.275C474.301 341.904 476.31 341.134 478.405 341.134C480.5 341.134 482.509 341.904 483.99 343.275C485.472 344.647 486.304 346.506 486.304 348.445Z" fill="#F9A825"/>
<path opacity="0.6" d="M486.304 348.445C486.304 352.477 482.761 357.034 478.405 357.034C474.049 357.034 470.506 352.477 470.506 348.445C470.506 346.506 471.338 344.647 472.819 343.275C474.301 341.904 476.31 341.134 478.405 341.134C480.5 341.134 482.509 341.904 483.99 343.275C485.472 344.647 486.304 346.506 486.304 348.445Z" fill="black"/>
<path d="M501.927 339.951C501.927 343.983 498.384 348.539 494.028 348.539C489.672 348.539 486.13 343.983 486.13 339.951C486.13 338.012 486.962 336.153 488.443 334.781C489.924 333.41 491.934 332.64 494.028 332.64C496.123 332.64 498.132 333.41 499.614 334.781C501.095 336.153 501.927 338.012 501.927 339.951Z" fill="#F9A825"/>
<path opacity="0.6" d="M501.927 339.951C501.927 343.983 498.384 348.539 494.028 348.539C489.672 348.539 486.13 343.983 486.13 339.951C486.13 338.012 486.962 336.153 488.443 334.781C489.924 333.41 491.934 332.64 494.028 332.64C496.123 332.64 498.132 333.41 499.614 334.781C501.095 336.153 501.927 338.012 501.927 339.951Z" fill="black"/>
<path d="M510.799 335.543C510.772 335.254 510.662 334.977 510.481 334.741C510.3 334.505 510.054 334.318 509.768 334.199L439.07 296.446C438.289 296.075 437.422 295.881 436.544 295.881C435.665 295.881 434.799 296.075 434.017 296.446L405.965 311.445C405.674 311.559 405.424 311.745 405.239 311.982C405.055 312.219 404.944 312.498 404.919 312.789V315.316C404.949 315.606 405.061 315.883 405.245 316.119C405.429 316.355 405.677 316.542 405.965 316.66L476.663 354.426C477.444 354.79 478.307 354.98 479.182 354.98C480.057 354.98 480.919 354.79 481.701 354.426L509.768 339.427C510.054 339.308 510.3 339.121 510.481 338.885C510.662 338.649 510.772 338.372 510.799 338.083V335.543Z" fill="#F9A825"/>
<path opacity="0.2" d="M510.799 335.543C510.772 335.254 510.662 334.977 510.481 334.741C510.3 334.505 510.054 334.318 509.768 334.199L439.07 296.446C438.289 296.075 437.422 295.881 436.544 295.881C435.665 295.881 434.799 296.075 434.017 296.446L405.965 311.445C405.674 311.559 405.424 311.745 405.239 311.982C405.055 312.219 404.944 312.498 404.919 312.789V315.316C404.949 315.606 405.061 315.883 405.245 316.119C405.429 316.355 405.677 316.542 405.965 316.66L476.663 354.426C477.444 354.79 478.307 354.98 479.182 354.98C480.057 354.98 480.919 354.79 481.701 354.426L509.768 339.427C510.054 339.308 510.3 339.121 510.481 338.885C510.662 338.649 510.772 338.372 510.799 338.083V335.543Z" fill="black"/>
<path opacity="0.1" d="M479.16 352.45V354.964C478.272 354.982 477.392 354.793 476.604 354.413L405.907 316.646C405.617 316.531 405.367 316.345 405.183 316.108C404.999 315.871 404.888 315.593 404.861 315.302V312.776C404.891 313.065 405.003 313.343 405.187 313.579C405.371 313.815 405.619 314.002 405.907 314.12L476.604 351.886C477.391 352.272 478.27 352.466 479.16 352.45V352.45Z" fill="black"/>
<path d="M405.965 311.432L434.017 296.433C434.799 296.061 435.665 295.867 436.544 295.867C437.422 295.867 438.289 296.061 439.07 296.433L509.768 334.186C510.069 334.283 510.329 334.465 510.514 334.706C510.698 334.947 510.797 335.235 510.797 335.53C510.797 335.825 510.698 336.112 510.514 336.353C510.329 336.594 510.069 336.776 509.768 336.874L481.701 351.873C480.919 352.237 480.057 352.426 479.182 352.426C478.307 352.426 477.444 352.237 476.663 351.873L405.965 314.106C405.662 314.012 405.399 313.832 405.213 313.592C405.027 313.352 404.927 313.064 404.927 312.769C404.927 312.474 405.027 312.186 405.213 311.946C405.399 311.706 405.662 311.526 405.965 311.432Z" fill="#F9A825"/>
<path opacity="0.1" d="M483.864 346.389C486.885 344.776 486.885 342.169 483.864 340.57C482.17 339.775 480.297 339.361 478.398 339.361C476.498 339.361 474.625 339.775 472.931 340.57C469.896 342.182 469.882 344.79 472.931 346.389C474.625 347.184 476.498 347.598 478.398 347.598C480.297 347.598 482.17 347.184 483.864 346.389Z" fill="black"/>
<path opacity="0.1" d="M499.488 338.029C502.508 336.417 502.508 333.809 499.488 332.21C497.792 331.418 495.92 331.006 494.021 331.006C492.122 331.006 490.25 331.418 488.554 332.21C485.52 333.809 485.505 336.417 488.554 338.029C490.25 338.821 492.122 339.233 494.021 339.233C495.92 339.233 497.792 338.821 499.488 338.029V338.029Z" fill="black"/>
<path opacity="0.1" d="M469.707 338.809C472.728 337.196 472.728 334.589 469.707 332.989C468.012 332.198 466.14 331.785 464.241 331.785C462.342 331.785 460.469 332.198 458.774 332.989C455.739 334.589 455.725 337.196 458.774 338.809C460.469 339.6 462.342 340.013 464.241 340.013C466.14 340.013 468.012 339.6 469.707 338.809Z" fill="black"/>
<path opacity="0.1" d="M485.331 330.463C488.351 328.85 488.351 326.243 485.331 324.643C483.637 323.848 481.764 323.434 479.864 323.434C477.965 323.434 476.092 323.848 474.397 324.643C471.363 326.256 471.348 328.863 474.397 330.463C476.092 331.257 477.965 331.671 479.864 331.671C481.764 331.671 483.637 331.257 485.331 330.463Z" fill="black"/>
<path opacity="0.1" d="M455.55 331.242C458.571 329.629 458.571 327.022 455.55 325.423C453.856 324.628 451.983 324.214 450.084 324.214C448.184 324.214 446.311 324.628 444.617 325.423C441.582 327.035 441.568 329.643 444.617 331.242C446.311 332.037 448.184 332.451 450.084 332.451C451.983 332.451 453.856 332.037 455.55 331.242V331.242Z" fill="black"/>
<path opacity="0.1" d="M471.174 322.883C474.194 321.27 474.194 318.662 471.174 317.063C469.479 316.271 467.606 315.859 465.707 315.859C463.808 315.859 461.936 316.271 460.24 317.063C457.206 318.662 457.191 321.27 460.24 322.883C461.936 323.674 463.808 324.087 465.707 324.087C467.606 324.087 469.479 323.674 471.174 322.883V322.883Z" fill="black"/>
<path opacity="0.1" d="M441.408 323.662C444.428 322.049 444.428 319.442 441.408 317.842C439.713 317.051 437.84 316.639 435.941 316.639C434.042 316.639 432.17 317.051 430.474 317.842C427.44 319.442 427.425 322.049 430.474 323.662C432.17 324.454 434.042 324.866 435.941 324.866C437.84 324.866 439.713 324.454 441.408 323.662V323.662Z" fill="black"/>
<path opacity="0.1" d="M457.017 315.316C460.037 313.703 460.037 311.096 457.017 309.496C455.322 308.702 453.45 308.287 451.55 308.287C449.651 308.287 447.778 308.702 446.083 309.496C443.049 311.109 443.034 313.716 446.083 315.316C447.778 316.111 449.651 316.525 451.55 316.525C453.45 316.525 455.322 316.111 457.017 315.316V315.316Z" fill="black"/>
<path opacity="0.1" d="M427.236 316.095C430.257 314.483 430.257 311.875 427.236 310.276C425.542 309.481 423.669 309.067 421.77 309.067C419.87 309.067 417.997 309.481 416.303 310.276C413.268 311.889 413.254 314.496 416.303 316.095C417.997 316.89 419.87 317.304 421.77 317.304C423.669 317.304 425.542 316.89 427.236 316.095Z" fill="black"/>
<path opacity="0.1" d="M442.86 307.776C445.88 306.163 445.88 303.556 442.86 301.956C441.165 301.165 439.292 300.752 437.393 300.752C435.494 300.752 433.622 301.165 431.926 301.956C428.892 303.556 428.877 306.163 431.926 307.776C433.622 308.568 435.494 308.98 437.393 308.98C439.292 308.98 441.165 308.568 442.86 307.776Z" fill="black"/>
<path d="M501.361 335.006C501.368 335.117 501.368 335.23 501.361 335.342C501.339 335.819 501.256 336.293 501.114 336.753C500.679 337.278 500.13 337.713 499.502 338.03C497.807 338.821 495.935 339.233 494.036 339.233C492.137 339.233 490.264 338.821 488.569 338.03C487.954 337.713 487.411 337.289 486.972 336.78C486.826 336.306 486.738 335.819 486.71 335.328C486.71 335.221 486.71 335.1 486.71 334.992C486.71 334.885 486.71 334.75 486.71 334.643C486.71 334.535 486.71 334.038 486.71 333.742C487.028 330.586 488.522 327.631 490.936 325.382C491.749 324.648 492.841 324.236 493.978 324.236C495.114 324.236 496.206 324.648 497.02 325.382C499.429 327.605 500.919 330.54 501.23 333.675C501.23 333.998 501.23 334.32 501.23 334.643C501.282 334.761 501.326 334.882 501.361 335.006V335.006Z" fill="#FFFFFA"/>
<path d="M487.204 327.412C487.212 327.528 487.212 327.645 487.204 327.761C487.175 328.216 487.093 328.667 486.957 329.105C486.53 329.655 485.98 330.113 485.346 330.449C483.65 331.241 481.778 331.653 479.879 331.653C477.98 331.653 476.107 331.241 474.412 330.449C473.797 330.133 473.254 329.708 472.815 329.199C472.669 328.726 472.581 328.239 472.553 327.748C472.553 327.64 472.553 327.519 472.553 327.398C472.553 327.277 472.553 327.17 472.553 327.062C472.553 326.753 472.553 326.458 472.553 326.162C472.871 323.006 474.365 320.05 476.779 317.802C477.592 317.068 478.684 316.656 479.821 316.656C480.957 316.656 482.049 317.068 482.863 317.802C485.272 320.025 486.763 322.959 487.073 326.095C487.073 326.417 487.073 326.74 487.073 327.062C487.125 327.176 487.169 327.293 487.204 327.412V327.412Z" fill="#FFFFFA"/>
<path d="M485.737 343.352C485.745 343.468 485.745 343.585 485.737 343.701C485.709 344.156 485.626 344.607 485.491 345.045C485.05 345.562 484.502 345.992 483.879 346.308C482.186 347.107 480.313 347.524 478.412 347.524C476.512 347.524 474.638 347.107 472.945 346.308C472.324 346 471.78 345.574 471.348 345.058C471.201 344.59 471.114 344.108 471.087 343.62C471.087 343.513 471.087 343.392 471.087 343.271C471.087 343.15 471.087 343.029 471.087 342.922C471.087 342.814 471.087 342.33 471.087 342.034C471.401 338.878 472.895 335.921 475.312 333.675C476.126 332.94 477.217 332.529 478.354 332.529C479.491 332.529 480.582 332.94 481.396 333.675C483.803 335.894 485.293 338.823 485.607 341.954C485.607 342.276 485.607 342.599 485.607 342.922C485.662 343.062 485.706 343.205 485.737 343.352V343.352Z" fill="#FFFFFA"/>
<path d="M471.581 335.771C471.588 335.888 471.588 336.005 471.581 336.121C471.552 336.576 471.469 337.027 471.334 337.465C470.893 337.982 470.345 338.411 469.722 338.728C468.029 339.527 466.156 339.944 464.255 339.944C462.355 339.944 460.482 339.527 458.788 338.728C458.167 338.42 457.623 337.994 457.191 337.478C457.044 337.01 456.957 336.527 456.93 336.04C456.93 335.933 456.93 335.812 456.93 335.691C456.93 335.57 456.93 335.449 456.93 335.341C456.93 335.234 456.93 334.737 456.93 334.454C457.248 331.294 458.741 328.335 461.155 326.081C461.969 325.346 463.06 324.935 464.197 324.935C465.334 324.935 466.425 325.346 467.239 326.081C469.649 328.303 471.139 331.238 471.45 334.374C471.45 334.696 471.45 335.019 471.45 335.341C471.505 335.481 471.549 335.625 471.581 335.771V335.771Z" fill="#FFFFFA"/>
<path d="M473.047 319.872C473.055 319.988 473.055 320.105 473.047 320.222C473.024 320.699 472.941 321.173 472.8 321.633C472.365 322.158 471.816 322.593 471.189 322.91C469.494 323.704 467.621 324.118 465.722 324.118C463.822 324.118 461.949 323.704 460.255 322.91C459.633 322.602 459.089 322.176 458.658 321.66C458.511 321.191 458.423 320.709 458.396 320.222C458.396 320.114 458.396 319.993 458.396 319.872C458.396 319.751 458.396 319.644 458.396 319.536C458.396 319.429 458.396 318.931 458.396 318.636C458.714 315.48 460.208 312.524 462.622 310.276C463.435 309.541 464.527 309.13 465.664 309.13C466.8 309.13 467.892 309.541 468.706 310.276C471.115 312.498 472.606 315.433 472.916 318.568C472.916 318.891 472.916 319.214 472.916 319.536C472.968 319.645 473.011 319.758 473.047 319.872Z" fill="#FFFFFA"/>
<path d="M458.832 312.252C458.84 312.368 458.84 312.485 458.832 312.601C458.803 313.056 458.721 313.507 458.585 313.945C458.153 314.491 457.605 314.948 456.973 315.289C455.279 316.084 453.406 316.498 451.507 316.498C449.607 316.498 447.734 316.084 446.04 315.289C445.418 314.981 444.874 314.555 444.443 314.039C444.296 313.571 444.208 313.088 444.181 312.601C444.181 312.493 444.181 312.373 444.181 312.252C444.181 312.131 444.181 312.023 444.181 311.916C444.181 311.606 444.181 311.311 444.181 311.015C444.499 307.859 445.993 304.904 448.407 302.655C449.22 301.921 450.312 301.509 451.449 301.509C452.585 301.509 453.677 301.921 454.49 302.655C456.897 304.874 458.387 307.804 458.701 310.934C458.701 311.257 458.701 311.593 458.701 311.916C458.753 312.025 458.796 312.137 458.832 312.252Z" fill="#FFFFFA"/>
<path opacity="0.15" d="M272.54 351.926L328.66 381.911C330.368 382.713 332.256 383.131 334.171 383.131C336.085 383.131 337.973 382.713 339.681 381.911L400.984 349.144C404.019 347.518 404.019 344.884 400.984 343.258L344.85 313.286C343.145 312.485 341.259 312.067 339.347 312.067C337.434 312.067 335.549 312.485 333.844 313.286L272.54 346.04C269.491 347.666 269.491 350.3 272.54 351.926Z" fill="black"/>
<path d="M403.249 337.935C403.172 337.316 402.923 336.725 402.526 336.221C402.129 335.717 401.598 335.317 400.984 335.059L344.85 305.088C343.143 304.293 341.258 303.878 339.347 303.878C337.436 303.878 335.551 304.293 333.844 305.088L272.54 337.841C271.912 338.098 271.369 338.507 270.971 339.025C270.572 339.543 270.332 340.151 270.275 340.785C270.275 341.779 270.275 345.354 270.275 346.349C270.341 346.975 270.585 347.574 270.983 348.084C271.381 348.594 271.919 348.997 272.54 349.252L328.66 379.236C330.368 380.038 332.256 380.456 334.171 380.456C336.085 380.456 337.973 380.038 339.681 379.236L400.984 346.47C401.613 346.213 402.155 345.804 402.554 345.286C402.953 344.768 403.193 344.16 403.249 343.526C403.235 342.545 403.264 338.943 403.249 337.935Z" fill="#F9A825"/>
<path opacity="0.65" d="M403.249 337.935C403.172 337.316 402.923 336.725 402.526 336.221C402.129 335.717 401.598 335.317 400.984 335.059L344.85 305.088C343.143 304.293 341.258 303.878 339.347 303.878C337.436 303.878 335.551 304.293 333.844 305.088L272.54 337.841C271.912 338.098 271.369 338.507 270.971 339.025C270.572 339.543 270.332 340.151 270.275 340.785C270.275 341.779 270.275 345.354 270.275 346.349C270.341 346.975 270.585 347.574 270.983 348.084C271.381 348.594 271.919 348.997 272.54 349.252L328.66 379.236C330.368 380.038 332.256 380.456 334.171 380.456C336.085 380.456 337.973 380.038 339.681 379.236L400.984 346.47C401.613 346.213 402.155 345.804 402.554 345.286C402.953 344.768 403.193 344.16 403.249 343.526C403.235 342.545 403.264 338.943 403.249 337.935Z" fill="white"/>
<path d="M272.54 343.728L328.66 373.713C330.368 374.514 332.256 374.932 334.171 374.932C336.085 374.932 337.973 374.514 339.681 373.713L400.984 340.946C404.019 339.32 404.019 336.685 400.984 335.059L344.85 305.088C343.143 304.293 341.258 303.878 339.347 303.878C337.436 303.878 335.551 304.293 333.844 305.088L272.54 337.841C269.491 339.468 269.491 342.102 272.54 343.728Z" fill="#F9A825"/>
<path opacity="0.8" d="M272.54 343.728L328.66 373.713C330.368 374.514 332.256 374.932 334.171 374.932C336.085 374.932 337.973 374.514 339.681 373.713L400.984 340.946C404.019 339.32 404.019 336.685 400.984 335.059L344.85 305.088C343.143 304.293 341.258 303.878 339.347 303.878C337.436 303.878 335.551 304.293 333.844 305.088L272.54 337.841C269.491 339.468 269.491 342.102 272.54 343.728Z" fill="white"/>
<path d="M334.178 374.976V380.5C332.256 380.531 330.358 380.11 328.66 379.277L272.526 349.292C271.905 349.037 271.368 348.633 270.97 348.123C270.573 347.613 270.328 347.015 270.261 346.389C270.261 345.422 270.261 342.088 270.261 341.013C270.353 341.62 270.608 342.195 271.004 342.686C271.4 343.177 271.924 343.568 272.526 343.822L328.66 373.807C330.363 374.621 332.261 375.024 334.178 374.976V374.976Z" fill="#F9A825"/>
<path opacity="0.5" d="M334.178 374.976V380.5C332.256 380.531 330.358 380.11 328.66 379.277L272.526 349.292C271.905 349.037 271.368 348.633 270.97 348.123C270.573 347.613 270.328 347.015 270.261 346.389C270.261 345.422 270.261 342.088 270.261 341.013C270.353 341.62 270.608 342.195 271.004 342.686C271.4 343.177 271.924 343.568 272.526 343.822L328.66 373.807C330.363 374.621 332.261 375.024 334.178 374.976V374.976Z" fill="white"/>
<path opacity="0.15" d="M300.84 318.528C282.036 328.581 282.036 344.87 300.84 354.924C319.643 364.977 350.208 364.977 368.953 354.924C387.699 344.87 387.829 328.581 368.953 318.528C350.077 308.475 319.658 308.435 300.84 318.528Z" fill="black"/>
<path d="M375.502 303.3C375.221 303.299 374.949 303.213 374.727 303.055C374.505 302.896 374.345 302.675 374.273 302.424C374.2 302.174 374.219 301.908 374.325 301.668C374.432 301.428 374.621 301.227 374.863 301.096L380.017 298.341C380.932 297.857 381.469 297.266 381.469 296.675C381.469 296.083 380.831 295.263 379.727 294.672L370.071 289.511C368.627 288.811 367.026 288.431 365.396 288.401C363.766 288.371 362.151 288.691 360.677 289.336L355.508 292.091C355.364 292.168 355.205 292.218 355.04 292.238C354.875 292.258 354.708 292.248 354.547 292.208C354.387 292.168 354.237 292.099 354.105 292.005C353.973 291.911 353.863 291.795 353.78 291.661C353.697 291.528 353.643 291.381 353.622 291.229C353.6 291.076 353.611 290.921 353.654 290.773C353.697 290.624 353.772 290.485 353.873 290.363C353.974 290.241 354.1 290.139 354.244 290.062L359.399 287.293C361.264 286.443 363.32 286.016 365.399 286.049C367.477 286.082 369.517 286.573 371.349 287.482L381.005 292.629C381.846 292.997 382.568 293.563 383.099 294.27C383.629 294.978 383.948 295.803 384.025 296.661C383.981 297.445 383.708 298.203 383.235 298.854C382.762 299.505 382.106 300.024 381.339 300.357L376.068 303.139C375.896 303.233 375.702 303.288 375.502 303.3V303.3Z" fill="#E0E0E0"/>
<path d="M380.656 308.139C380.656 301.889 376.199 295.626 367.254 290.855C349.395 281.299 320.413 281.299 302.539 290.855C293.609 295.626 289.151 301.889 289.151 308.139V335.637C289.151 341.9 293.609 348.15 302.539 352.921C320.413 362.477 349.38 362.477 367.254 352.921C376.199 348.136 380.656 341.887 380.656 335.624V308.139Z" fill="#263238"/>
<path d="M302.539 290.855C284.679 300.397 284.679 315.88 302.539 325.436C320.398 334.992 349.38 334.992 367.254 325.436C385.128 315.88 385.128 300.411 367.254 290.855C349.38 281.299 320.413 281.299 302.539 290.855Z" fill="#37474F"/>
<path d="M305.21 292.992C288.817 301.392 288.817 315.034 305.21 323.434C321.604 331.834 348.19 331.847 364.597 323.434C381.005 315.02 380.99 301.392 364.597 292.992C348.204 284.592 321.604 284.512 305.21 292.992Z" fill="#263238"/>
<path d="M364.597 303.462C348.19 295.048 321.603 295.048 305.21 303.462C299.649 306.311 295.976 309.765 294.19 313.407C295.976 317.063 299.649 320.517 305.21 323.366C321.603 331.78 348.19 331.78 364.597 323.366C370.158 320.517 373.832 317.063 375.618 313.407C373.832 309.765 370.158 306.311 364.597 303.462Z" fill="#F9A825"/>
<path d="M303.308 340.314C301.119 340.34 298.959 339.844 297.036 338.876L287.38 333.715C286.539 333.348 285.819 332.782 285.291 332.074C284.763 331.365 284.447 330.541 284.374 329.683C284.42 328.895 284.696 328.133 285.171 327.478C285.646 326.822 286.304 326.298 287.075 325.96L292.273 323.178C292.418 323.088 292.582 323.027 292.754 322.998C292.926 322.969 293.102 322.973 293.272 323.009C293.443 323.046 293.603 323.115 293.743 323.211C293.884 323.307 294.001 323.429 294.089 323.569C294.176 323.709 294.232 323.864 294.252 324.025C294.272 324.185 294.257 324.348 294.206 324.503C294.156 324.658 294.072 324.801 293.959 324.925C293.846 325.048 293.707 325.149 293.551 325.221L288.353 328.003C287.423 328.487 286.901 329.092 286.901 329.683C286.901 330.274 287.54 331.027 288.643 331.686L298.284 336.833C299.731 337.534 301.333 337.916 302.965 337.948C304.597 337.981 306.216 337.664 307.693 337.021L312.862 334.333C313.006 334.257 313.165 334.207 313.33 334.187C313.495 334.167 313.662 334.177 313.823 334.217C313.983 334.257 314.133 334.326 314.265 334.42C314.397 334.513 314.507 334.63 314.59 334.763C314.673 334.897 314.727 335.044 314.749 335.196C314.77 335.349 314.759 335.504 314.716 335.652C314.673 335.801 314.598 335.94 314.497 336.062C314.396 336.184 314.27 336.286 314.126 336.363L308.957 339.131C307.212 339.961 305.269 340.368 303.308 340.314Z" fill="#E0E0E0"/>
<path opacity="0.5" d="M299.577 313.999C298.255 303.447 301.375 292.829 308.289 284.35C312.209 279.686 322.809 276.017 328.951 274.512C333.858 273.302 340.276 271.824 342.919 267.133C343.606 265.844 343.945 264.418 343.906 262.98C343.81 259.649 342.686 256.413 340.668 253.653C336.806 248.049 328.776 243.466 331.826 235.845C333.278 232.284 336.908 228.829 341.322 229.125C342.312 229.184 343.29 229.369 344.226 229.676C345.731 230.208 347.03 231.144 347.957 232.364C345.852 231.625 340.596 230.321 338.243 235.832C335.891 241.342 346.955 247.74 351.311 250.616C356.161 253.909 361.069 257.779 362.927 263.249C364.568 268.047 363.043 273.02 360.473 277.281C357.903 281.541 356.117 285.842 357.337 291.137C358.383 295.855 361.403 299.107 364.815 302.521C368.227 305.935 371.32 309.496 371.32 314.442C360.517 330.396 307.824 331.471 299.577 313.999Z" fill="#E0E0E0"/>
<path opacity="0.15" d="M200.681 356.079C194.597 359.318 194.597 364.587 200.681 367.839C204.093 369.436 207.863 370.268 211.687 370.268C215.511 370.268 219.281 369.436 222.693 367.839C228.777 364.587 228.777 359.318 222.693 356.079C219.283 354.476 215.512 353.641 211.687 353.641C207.862 353.641 204.091 354.476 200.681 356.079Z" fill="black"/>
<path d="M220.065 364.56C222.472 363.078 224.411 361.033 225.686 358.632C226.961 356.231 227.527 353.56 227.325 350.892C227.068 348.928 226.263 347.061 224.991 345.473C223.718 343.885 222.02 342.63 220.065 341.833V341.833C217.459 340.737 214.629 340.171 211.767 340.171C208.904 340.171 206.075 340.737 203.469 341.833V341.833C201.513 342.629 199.815 343.883 198.541 345.472C197.268 347.06 196.464 348.928 196.209 350.892C196.003 353.565 196.567 356.24 197.842 358.646C199.117 361.052 201.059 363.102 203.469 364.587H203.541C203.759 364.735 203.991 364.869 204.224 365.004C206.579 366.104 209.18 366.677 211.818 366.677C214.456 366.677 217.057 366.104 219.412 365.004L219.513 364.936L220.051 364.614L220.065 364.56Z" fill="#FF6584"/>
<path opacity="0.1" d="M227.282 350.892C227.239 350.507 227.171 350.126 227.078 349.749C225.078 350.017 223.194 350.784 221.628 351.968C220.063 353.152 218.875 354.708 218.192 356.469C216.966 359.412 216.853 362.652 217.873 365.662C218.369 365.486 218.853 365.284 219.325 365.057L219.426 364.99L219.963 364.668L220.109 364.574C222.501 363.081 224.425 361.029 225.685 358.626C226.944 356.223 227.495 353.555 227.282 350.892V350.892Z" fill="black"/>
<path opacity="0.1" d="M222.156 351.349C222.228 351.307 222.283 351.246 222.316 351.174C223.637 348.916 221.967 345.61 219.833 344.293C221.087 343.991 222.414 344.081 223.608 344.548C223.878 344.692 224.16 344.818 224.45 344.924C223.18 343.64 221.657 342.591 219.963 341.833C219.035 341.408 218.062 341.07 217.059 340.825V340.825C216.842 340.838 216.624 340.838 216.406 340.825C216.099 340.774 215.807 340.664 215.549 340.502C213.789 340.193 211.993 340.098 210.206 340.22C210.041 340.335 209.86 340.43 209.669 340.502H209.596C209.27 340.556 208.935 340.556 208.609 340.502L207.868 340.435C206.311 340.681 204.8 341.134 203.382 341.779V341.779C202.515 342.162 201.684 342.612 200.899 343.123H201.146C202.862 342.883 204.617 343.055 206.242 343.621C204.804 344.414 203.578 345.498 202.656 346.792C202.218 347.624 201.938 348.52 201.828 349.44C201.755 349.87 201.901 350.65 202.568 350.515C202.822 350.431 203.047 350.287 203.222 350.099C204.746 348.762 206.523 347.696 208.464 346.954C208.761 346.805 209.105 346.758 209.436 346.819C210.003 346.994 209.843 348.056 209.916 348.486C210.032 349.265 210.177 350.045 210.337 350.811C210.496 351.577 210.7 354.225 212.239 353.432C212.564 353.232 212.828 352.959 213.008 352.639C214.115 350.843 214.714 348.819 214.751 346.752C215.071 346.761 215.384 346.839 215.666 346.981C216.567 347.368 217.436 347.817 218.265 348.325C219.58 348.985 220.724 349.902 221.619 351.013C221.749 351.228 221.967 351.456 222.156 351.349Z" fill="black"/>
<path d="M209.669 339.925H209.596C209.271 339.992 208.934 339.992 208.609 339.925C207.227 339.736 205.823 339.736 204.442 339.925C203.569 340.107 202.739 340.43 201.988 340.879C201.654 341.067 199.853 342.223 200.623 342.545C200.793 342.592 200.975 342.592 201.146 342.545C202.863 342.314 204.615 342.485 206.242 343.043C204.799 343.837 203.573 344.927 202.656 346.228C202.221 347.007 201.927 347.847 201.784 348.714C201.712 349.144 201.857 349.924 202.525 349.776C202.777 349.697 203.002 349.558 203.178 349.373C204.702 348.032 206.479 346.962 208.42 346.214C208.716 346.063 209.064 346.019 209.393 346.093C209.959 346.268 209.799 347.317 209.872 347.76C209.988 348.54 210.133 349.306 210.293 350.085C210.453 350.865 210.656 353.499 212.195 352.706C212.521 352.501 212.785 352.224 212.965 351.9C214.088 350.113 214.702 348.092 214.751 346.026C215.07 346.031 215.383 346.104 215.666 346.241C216.564 346.634 217.432 347.083 218.265 347.585C219.583 348.242 220.728 349.16 221.619 350.273C221.749 350.448 221.967 350.676 222.17 350.569C222.245 350.531 222.302 350.469 222.33 350.394C223.652 348.136 221.982 344.844 219.847 343.513C221.103 343.216 222.43 343.31 223.622 343.782C223.965 343.973 224.337 344.113 224.726 344.198C224.808 344.223 224.897 344.222 224.978 344.195C225.06 344.169 225.129 344.118 225.176 344.051C225.19 343.993 225.19 343.933 225.176 343.876C225.118 343.378 224.895 342.908 224.537 342.532C223.611 341.582 222.436 340.869 221.125 340.462C219.803 340.078 218.41 339.945 217.03 340.072C216.814 340.099 216.594 340.099 216.377 340.072C215.789 339.931 215.249 339.654 214.809 339.266C214.299 338.923 213.695 338.718 213.066 338.675C212.115 338.61 211.168 338.847 210.38 339.347C210.166 339.563 209.928 339.756 209.669 339.925V339.925Z" fill="#F9A825"/>
<path opacity="0.5" d="M209.669 339.925H209.596C209.271 339.992 208.934 339.992 208.609 339.925C207.227 339.736 205.823 339.736 204.442 339.925C203.569 340.107 202.739 340.43 201.988 340.879C201.654 341.067 199.853 342.223 200.623 342.545C200.793 342.592 200.975 342.592 201.146 342.545C202.863 342.314 204.615 342.485 206.242 343.043C204.799 343.837 203.573 344.927 202.656 346.228C202.221 347.007 201.927 347.847 201.784 348.714C201.712 349.144 201.857 349.924 202.525 349.776C202.777 349.697 203.002 349.558 203.178 349.373C204.702 348.032 206.479 346.962 208.42 346.214C208.716 346.063 209.064 346.019 209.393 346.093C209.959 346.268 209.799 347.317 209.872 347.76C209.988 348.54 210.133 349.306 210.293 350.085C210.453 350.865 210.656 353.499 212.195 352.706C212.521 352.501 212.785 352.224 212.965 351.9C214.088 350.113 214.702 348.092 214.751 346.026C215.07 346.031 215.383 346.104 215.666 346.241C216.564 346.634 217.432 347.083 218.265 347.585C219.583 348.242 220.728 349.16 221.619 350.273C221.749 350.448 221.967 350.676 222.17 350.569C222.245 350.531 222.302 350.469 222.33 350.394C223.652 348.136 221.982 344.844 219.847 343.513C221.103 343.216 222.43 343.31 223.622 343.782C223.965 343.973 224.337 344.113 224.726 344.198C224.808 344.223 224.897 344.222 224.978 344.195C225.06 344.169 225.129 344.118 225.176 344.051C225.19 343.993 225.19 343.933 225.176 343.876C225.118 343.378 224.895 342.908 224.537 342.532C223.611 341.582 222.436 340.869 221.125 340.462C219.803 340.078 218.41 339.945 217.03 340.072C216.814 340.099 216.594 340.099 216.377 340.072C215.789 339.931 215.249 339.654 214.809 339.266C214.299 338.923 213.695 338.718 213.066 338.675C212.115 338.61 211.168 338.847 210.38 339.347C210.166 339.563 209.928 339.756 209.669 339.925V339.925Z" fill="black"/>
<path opacity="0.15" d="M214.751 344.158C214.803 344.816 214.803 345.476 214.751 346.134C215.07 346.138 215.383 346.212 215.666 346.349C216.564 346.741 217.432 347.191 218.265 347.693C219.583 348.349 220.728 349.267 221.619 350.381C221.967 347.827 214.664 343.715 214.751 344.158Z" fill="black"/>
<path opacity="0.15" d="M209.654 344.064C208.754 344.064 203.846 347.478 203.178 349.44C204.702 348.099 206.479 347.029 208.42 346.282C208.716 346.13 209.064 346.087 209.393 346.161C209.596 346.161 209.698 346.389 209.77 346.618C209.741 344.897 210.119 344.064 209.654 344.064Z" fill="black"/>
<path opacity="0.15" d="M222.04 366.253C215.956 369.506 215.956 374.774 222.04 378.014C225.45 379.617 229.221 380.452 233.046 380.452C236.871 380.452 240.642 379.617 244.052 378.014C250.121 374.774 250.121 369.506 244.052 366.253C240.64 364.657 236.87 363.825 233.046 363.825C229.222 363.825 225.452 364.657 222.04 366.253Z" fill="black"/>
<path d="M236.763 376.965C239.628 376.63 242.346 375.599 244.641 373.978C246.936 372.356 248.727 370.201 249.831 367.732C250.548 365.866 250.727 363.86 250.35 361.91C249.974 359.961 249.054 358.137 247.682 356.617C245.888 354.551 243.634 352.866 241.073 351.679C238.512 350.491 235.705 349.829 232.843 349.736C230.705 349.633 228.575 350.048 226.663 350.939C224.751 351.829 223.123 353.166 221.938 354.816C220.46 357.117 219.667 359.741 219.641 362.418C219.616 365.096 220.358 367.732 221.793 370.057V370.124C221.919 370.351 222.06 370.571 222.214 370.783C223.781 372.745 225.826 374.337 228.182 375.43C230.538 376.522 233.14 377.085 235.776 377.073H235.906L236.545 377.005L236.763 376.965Z" fill="#FF6584"/>
<path opacity="0.1" d="M245.04 366.025C245.126 366.019 245.208 365.986 245.272 365.931C247.537 364.466 247.639 360.824 246.375 358.754C247.642 359.012 248.783 359.644 249.628 360.555C249.796 360.793 249.985 361.018 250.194 361.227C249.675 359.559 248.823 357.995 247.682 356.617V356.617C247.078 355.86 246.392 355.162 245.635 354.534V354.534C245.43 354.461 245.235 354.367 245.054 354.251C244.802 354.08 244.594 353.86 244.444 353.606C243.016 352.612 241.461 351.786 239.812 351.147C239.605 351.173 239.395 351.173 239.188 351.147H239.101C238.753 351.089 238.422 350.965 238.128 350.784L237.489 350.421C235.977 349.997 234.408 349.775 232.828 349.763V349.763C231.855 349.759 230.883 349.836 229.924 349.991L230.157 350.099C231.82 350.593 233.319 351.472 234.513 352.652C232.84 352.758 231.215 353.218 229.764 353.996C228.998 354.507 228.33 355.134 227.79 355.851C227.514 356.214 227.267 356.966 227.935 357.114C228.201 357.143 228.47 357.111 228.719 357.02C230.726 356.457 232.827 356.239 234.919 356.375C235.26 356.364 235.594 356.464 235.863 356.657C236.284 357.047 235.631 357.934 235.485 358.351C235.209 359.103 234.963 359.843 234.73 360.595C234.498 361.348 233.409 363.807 235.166 363.74C235.557 363.699 235.929 363.559 236.24 363.337C238.111 362.205 239.641 360.651 240.684 358.821C240.965 358.961 241.209 359.159 241.395 359.399C242.008 360.129 242.566 360.897 243.065 361.697C243.919 362.85 244.489 364.162 244.735 365.541C244.72 365.743 244.807 366.038 245.04 366.025Z" fill="black"/>
<path d="M239.377 350.636H239.29C238.972 350.561 238.672 350.434 238.404 350.26C237.27 349.51 236.015 348.929 234.687 348.539C233.814 348.336 232.911 348.272 232.015 348.351C231.623 348.351 229.46 348.687 229.997 349.292C230.122 349.413 230.276 349.505 230.447 349.561C232.108 350.058 233.607 350.937 234.803 352.114C233.13 352.22 231.506 352.68 230.055 353.458C229.288 353.969 228.62 354.596 228.08 355.313C227.804 355.676 227.543 356.429 228.211 356.577C228.477 356.606 228.746 356.574 228.995 356.482C231.007 355.92 233.113 355.701 235.209 355.837C235.552 355.83 235.886 355.935 236.153 356.133C236.56 356.509 235.921 357.396 235.761 357.813C235.5 358.566 235.253 359.305 235.021 360.058C234.788 360.81 233.685 363.27 235.456 363.203C235.847 363.161 236.219 363.022 236.531 362.799C238.399 361.664 239.927 360.111 240.974 358.283C241.256 358.423 241.499 358.621 241.685 358.861C242.293 359.592 242.846 360.359 243.341 361.16C244.193 362.315 244.767 363.625 245.025 365.003C245.025 365.219 245.127 365.514 245.359 365.501C245.443 365.495 245.524 365.467 245.591 365.42C247.871 363.942 247.973 360.299 246.695 358.23C247.963 358.484 249.105 359.117 249.947 360.031C250.16 360.341 250.419 360.621 250.717 360.864C250.862 360.958 251.08 361.025 251.211 360.864C251.253 360.82 251.287 360.77 251.312 360.716C251.48 360.24 251.48 359.727 251.312 359.251C250.941 358.022 250.242 356.899 249.279 355.985C248.276 355.097 247.091 354.402 245.795 353.942C245.59 353.87 245.395 353.775 245.214 353.66C244.769 353.293 244.425 352.832 244.212 352.316C243.922 351.8 243.486 351.368 242.949 351.066C242.124 350.611 241.155 350.431 240.204 350.555C239.932 350.607 239.655 350.634 239.377 350.636V350.636Z" fill="#F9A825"/>
<path opacity="0.5" d="M239.377 350.636H239.29C238.972 350.561 238.672 350.434 238.404 350.26C237.27 349.51 236.015 348.929 234.687 348.539C233.814 348.336 232.911 348.272 232.015 348.351C231.623 348.351 229.46 348.687 229.997 349.292C230.122 349.413 230.276 349.505 230.447 349.561C232.108 350.058 233.607 350.937 234.803 352.114C233.13 352.22 231.506 352.68 230.055 353.458C229.288 353.969 228.62 354.596 228.08 355.313C227.804 355.676 227.543 356.429 228.211 356.577C228.477 356.606 228.746 356.574 228.995 356.482C231.007 355.92 233.113 355.701 235.209 355.837C235.552 355.83 235.886 355.935 236.153 356.133C236.56 356.509 235.921 357.396 235.761 357.813C235.5 358.566 235.253 359.305 235.021 360.058C234.788 360.81 233.685 363.27 235.456 363.203C235.847 363.161 236.219 363.022 236.531 362.799C238.399 361.664 239.927 360.111 240.974 358.283C241.256 358.423 241.499 358.621 241.685 358.861C242.293 359.592 242.846 360.359 243.341 361.16C244.193 362.315 244.767 363.625 245.025 365.003C245.025 365.219 245.127 365.514 245.359 365.501C245.443 365.495 245.524 365.467 245.591 365.42C247.871 363.942 247.973 360.299 246.695 358.23C247.963 358.484 249.105 359.117 249.947 360.031C250.16 360.341 250.419 360.621 250.717 360.864C250.862 360.958 251.08 361.025 251.211 360.864C251.253 360.82 251.287 360.77 251.312 360.716C251.48 360.24 251.48 359.727 251.312 359.251C250.941 358.022 250.242 356.899 249.279 355.985C248.276 355.097 247.091 354.402 245.795 353.942C245.59 353.87 245.395 353.775 245.214 353.66C244.769 353.293 244.425 352.832 244.212 352.316C243.922 351.8 243.486 351.368 242.949 351.066C242.124 350.611 241.155 350.431 240.204 350.555C239.932 350.607 239.655 350.634 239.377 350.636V350.636Z" fill="black"/>
<path opacity="0.15" d="M241.874 356.523C241.604 357.129 241.289 357.718 240.93 358.284C241.212 358.423 241.456 358.621 241.642 358.862C242.25 359.592 242.803 360.36 243.297 361.16C244.149 362.315 244.724 363.625 244.981 365.004C246.564 362.799 242.019 356.16 241.874 356.523Z" fill="black"/>
<path opacity="0.15" d="M237.344 354.359C236.545 353.983 230.549 355.018 228.951 356.482C230.963 355.92 233.069 355.701 235.166 355.837C235.508 355.83 235.843 355.935 236.11 356.133C236.177 356.209 236.222 356.299 236.239 356.396C236.257 356.493 236.248 356.592 236.211 356.684C237.039 355.098 237.765 354.547 237.344 354.359Z" fill="black"/>
<path opacity="0.15" d="M380.264 397.26C380.351 396.198 381.426 395.391 381.571 394.33C381.774 392.878 380.017 391.709 378.435 391.803C376.899 392.051 375.458 392.662 374.253 393.577C372.728 390.889 370.405 388.604 367.283 391.642C366.194 392.876 365.389 394.303 364.917 395.835C364.836 395.633 364.713 395.447 364.554 395.289C364.396 395.131 364.205 395.003 363.994 394.913C363.782 394.824 363.553 394.773 363.32 394.765C363.087 394.757 362.855 394.792 362.637 394.867C362.203 395.043 361.815 395.303 361.499 395.63C361.183 395.957 360.947 396.343 360.807 396.762C360.36 397.927 360.36 399.199 360.807 400.364C360.596 400.11 360.328 399.901 360.022 399.752C359.715 399.602 359.378 399.515 359.032 399.498C358.686 399.48 358.34 399.531 358.017 399.648C357.695 399.765 357.403 399.945 357.163 400.176C356.705 400.668 356.367 401.246 356.172 401.87C355.976 402.493 355.928 403.149 356.03 403.791C355.261 402.676 353.272 403.052 352.429 404.114C351.729 405.267 351.363 406.568 351.369 407.891C351.361 408.548 351.197 409.196 350.888 409.788C350.58 410.38 350.134 410.902 349.583 411.318L349.496 411.425C342.984 413.252 336.274 414.411 329.488 414.879C327.687 415.041 325.872 415.162 324.043 415.229C324.267 414.929 324.374 414.568 324.348 414.204C324.321 413.84 324.163 413.496 323.898 413.226C325.385 414.084 327.133 414.471 328.878 414.328C329.304 414.274 329.713 414.139 330.08 413.932C330.448 413.726 330.765 413.451 331.013 413.126C331.261 412.801 331.434 412.432 331.521 412.042C331.608 411.653 331.608 411.25 331.521 410.861C332.933 411.244 334.413 411.368 335.877 411.224C336.61 411.135 337.298 410.847 337.856 410.398C338.414 409.949 338.816 409.357 339.013 408.697C339.052 408.243 339.135 407.793 339.26 407.353C339.608 406.533 340.712 406.157 341.104 405.35C341.197 405.06 341.224 404.755 341.183 404.454C341.143 404.153 341.035 403.864 340.867 403.603C340.699 403.343 340.475 403.118 340.208 402.942C339.942 402.766 339.638 402.644 339.318 402.582C338.032 402.423 336.724 402.566 335.514 402.998C335.049 400.512 333.844 398.133 330.519 399.786C329.304 400.505 328.261 401.448 327.455 402.555C327.455 402.371 327.415 402.19 327.337 402.021C327.258 401.853 327.144 401.701 326.999 401.575C326.855 401.449 326.685 401.352 326.498 401.289C326.312 401.227 326.114 401.2 325.916 401.211C325.522 401.247 325.142 401.362 324.801 401.547C324.46 401.733 324.166 401.985 323.941 402.286C323.257 403.099 322.898 404.106 322.925 405.135C322.829 404.883 322.675 404.654 322.475 404.462C322.274 404.27 322.031 404.12 321.762 404.023C321.493 403.926 321.205 403.884 320.917 403.9C320.629 403.915 320.348 403.988 320.093 404.114C319.591 404.394 319.16 404.77 318.83 405.218C318.499 405.665 318.276 406.173 318.177 406.708C317.872 405.646 316.187 405.458 315.273 406.103C314.402 406.835 313.747 407.76 313.371 408.791C313.071 409.455 312.626 410.055 312.064 410.552C306.11 410.652 300.165 410.075 294.364 408.831C290.348 408.024 286.402 406.941 282.559 405.592C278.832 402.557 275.741 398.912 273.441 394.84C273.034 394.101 271.524 394.693 271.684 395.472C272.277 398.052 273.504 400.471 275.27 402.541C270.67 400.284 266.575 397.237 263.204 393.564C262.638 392.932 261.302 393.819 261.65 394.531C264.554 400.485 270.812 403.549 276.824 406.224C278.131 406.815 279.495 407.353 280.889 407.85C281.819 408.576 282.762 409.288 283.692 409.974C288.259 413.204 293.185 415.975 298.386 418.239C303.89 420.8 309.755 422.632 315.81 423.683L316.696 423.817C318.017 425.752 319.876 428.185 321.211 427.674L321.342 426.72C322.107 427.681 323.171 428.404 324.391 428.79C324.841 428.96 325.324 429.041 325.809 429.027C326.294 429.013 326.771 428.905 327.208 428.709C327.633 428.493 327.949 428.131 328.088 427.701C328.227 427.271 328.177 426.807 327.949 426.411C329.195 427.555 330.811 428.291 332.552 428.508C334.294 428.575 336.167 427.271 335.949 425.672C337.246 426.337 338.672 426.758 340.145 426.908C340.881 426.973 341.62 426.836 342.271 426.513C342.922 426.19 343.456 425.696 343.805 425.094C343.945 424.651 344.135 424.224 344.371 423.817C344.908 423.078 346.055 422.93 346.65 422.231C346.811 421.967 346.91 421.676 346.943 421.374C346.975 421.073 346.94 420.769 346.839 420.481C346.738 420.193 346.573 419.928 346.356 419.701C346.139 419.475 345.873 419.293 345.576 419.167C344.357 418.747 343.044 418.618 341.757 418.79C341.852 417.823 341.728 416.848 341.394 415.928C344.608 415.273 347.767 414.406 350.847 413.334L351.834 412.971C354.477 414.194 358.005 415.659 359.094 414.315L358.6 413.267C360.03 413.809 361.602 413.945 363.116 413.656C363.702 413.58 364.264 413.39 364.764 413.098C365.265 412.806 365.693 412.419 366.02 411.963C366.313 411.499 366.397 410.946 366.253 410.426C366.109 409.905 365.748 409.458 365.251 409.181C367.291 409.653 369.442 409.497 371.378 408.737C373.208 407.81 374.282 405.391 372.99 403.872C374.766 403.829 376.514 403.454 378.13 402.77C378.928 402.417 379.596 401.854 380.051 401.151C380.505 400.448 380.726 399.637 380.685 398.819C380.492 398.312 380.351 397.79 380.264 397.26ZM329.154 417.648C329.053 417.873 328.98 418.107 328.936 418.347C328.938 418.111 328.873 417.88 328.747 417.675L329.154 417.648ZM324.696 417.836C324.405 418.172 324.147 418.532 323.927 418.911C323.913 418.683 323.833 418.463 323.695 418.274C323.557 418.084 323.366 417.933 323.143 417.836H324.696ZM317.538 415.296C317.538 415.175 317.538 415.054 317.538 414.92C317.723 415.065 317.916 415.199 318.119 415.323L317.538 415.296ZM311.381 413.092H312.282C313.101 413.865 313.98 414.584 314.91 415.242C309.379 414.952 303.913 413.999 298.647 412.406C302.856 413.032 307.124 413.248 311.381 413.052V413.092ZM293.173 412.81C298.205 414.828 303.518 416.185 308.957 416.842C312.962 417.368 316.994 417.704 321.037 417.85C320.085 418.407 319.281 419.155 318.685 420.04C318.234 420.623 317.661 421.117 317.001 421.492C311.169 420.371 305.507 418.593 300.143 416.197C297.805 415.135 295.453 413.952 293.173 412.769V412.81Z" fill="black"/>
<path d="M349.569 408.146C350.12 407.731 350.565 407.208 350.874 406.616C351.182 406.024 351.347 405.376 351.355 404.719C351.351 403.401 351.716 402.104 352.415 400.955C353.257 399.894 355.246 399.517 356.016 400.619C355.915 399.977 355.963 399.322 356.159 398.698C356.354 398.074 356.691 397.497 357.148 397.004C357.391 396.776 357.684 396.599 358.007 396.484C358.329 396.369 358.675 396.32 359.02 396.339C359.365 396.358 359.702 396.445 360.008 396.595C360.314 396.744 360.581 396.953 360.793 397.206C360.345 396.041 360.345 394.769 360.793 393.604C360.93 393.183 361.165 392.796 361.481 392.469C361.797 392.141 362.187 391.882 362.622 391.709C362.841 391.633 363.073 391.599 363.306 391.607C363.539 391.615 363.767 391.665 363.979 391.755C364.191 391.845 364.381 391.972 364.54 392.131C364.698 392.289 364.821 392.474 364.902 392.676C365.39 391.113 366.226 389.662 367.356 388.416C370.478 385.392 372.801 387.69 374.326 390.365C375.534 389.451 376.972 388.836 378.507 388.577C380.09 388.497 381.847 389.666 381.644 391.117C381.498 392.166 380.424 392.972 380.337 394.034C380.372 394.587 380.464 395.136 380.613 395.674C380.652 396.491 380.43 397.302 379.976 398.004C379.522 398.707 378.854 399.27 378.057 399.625C376.439 400.303 374.692 400.677 372.917 400.727C374.209 402.246 373.135 404.665 371.305 405.579C369.371 406.345 367.218 406.501 365.178 406.022C365.674 406.304 366.032 406.754 366.176 407.276C366.319 407.798 366.238 408.351 365.948 408.818C365.62 409.272 365.191 409.657 364.691 409.947C364.19 410.236 363.629 410.424 363.044 410.498C361.53 410.794 359.956 410.658 358.528 410.108L359.022 411.156C357.57 412.957 351.152 409.355 349.25 408.563" fill="#A6E5BB"/>
<path opacity="0.25" d="M349.569 408.146C350.12 407.731 350.565 407.208 350.874 406.616C351.182 406.024 351.347 405.376 351.355 404.719C351.351 403.401 351.716 402.104 352.415 400.955C353.257 399.894 355.246 399.517 356.016 400.619C355.915 399.977 355.963 399.322 356.159 398.698C356.354 398.074 356.691 397.497 357.148 397.004C357.391 396.776 357.684 396.599 358.007 396.484C358.329 396.369 358.675 396.32 359.02 396.339C359.365 396.358 359.702 396.445 360.008 396.595C360.314 396.744 360.581 396.953 360.793 397.206C360.345 396.041 360.345 394.769 360.793 393.604C360.93 393.183 361.165 392.796 361.481 392.469C361.797 392.141 362.187 391.882 362.622 391.709C362.841 391.633 363.073 391.599 363.306 391.607C363.539 391.615 363.767 391.665 363.979 391.755C364.191 391.845 364.381 391.972 364.54 392.131C364.698 392.289 364.821 392.474 364.902 392.676C365.39 391.113 366.226 389.662 367.356 388.416C370.478 385.392 372.801 387.69 374.326 390.365C375.534 389.451 376.972 388.836 378.507 388.577C380.09 388.497 381.847 389.666 381.644 391.117C381.498 392.166 380.424 392.972 380.337 394.034C380.372 394.587 380.464 395.136 380.613 395.674C380.652 396.491 380.43 397.302 379.976 398.004C379.522 398.707 378.854 399.27 378.057 399.625C376.439 400.303 374.692 400.677 372.917 400.727C374.209 402.246 373.135 404.665 371.305 405.579C369.371 406.345 367.218 406.501 365.178 406.022C365.674 406.304 366.032 406.754 366.176 407.276C366.319 407.798 366.238 408.351 365.948 408.818C365.62 409.272 365.191 409.657 364.691 409.947C364.19 410.236 363.629 410.424 363.044 410.498C361.53 410.794 359.956 410.658 358.528 410.108L359.022 411.156C357.57 412.957 351.152 409.355 349.25 408.563" fill="black"/>
<path d="M371.712 395.835C365.769 401.077 358.733 405.143 351.035 407.783C344.057 409.916 336.819 411.235 329.488 411.708C315.389 412.984 300.288 411.708 288.135 404.571C287.22 404.047 285.928 405.646 286.683 406.211C292.317 410.108 301 412.662 308.913 413.643C315.636 414.605 322.452 414.884 329.241 414.476C336.6 413.979 343.848 412.531 350.774 410.175C358.324 407.487 368.067 402.783 372.38 396.037C372.67 395.66 371.901 395.633 371.712 395.835Z" fill="#A6E5BB"/>
<path opacity="0.1" d="M371.712 395.835C365.769 401.077 358.733 405.143 351.035 407.783C344.057 409.916 336.819 411.235 329.488 411.708C315.389 412.984 300.288 411.708 288.135 404.571C287.22 404.047 285.928 405.646 286.683 406.211C292.317 410.108 301 412.662 308.913 413.643C315.636 414.605 322.452 414.884 329.241 414.476C336.6 413.979 343.848 412.531 350.774 410.175C358.324 407.487 368.067 402.783 372.38 396.037C372.67 395.66 371.901 395.633 371.712 395.835Z" fill="black"/>
<path d="M310.96 407.971C311.516 407.779 312.019 407.474 312.431 407.079C312.843 406.683 313.154 406.208 313.342 405.686C313.715 404.654 314.37 403.728 315.244 402.998C316.202 402.353 317.886 402.541 318.148 403.603C318.249 403.068 318.472 402.558 318.803 402.108C319.133 401.659 319.563 401.28 320.064 400.996C320.319 400.873 320.6 400.801 320.888 400.787C321.175 400.772 321.462 400.815 321.73 400.912C321.999 401.008 322.241 401.157 322.442 401.348C322.643 401.539 322.798 401.767 322.896 402.017C322.869 400.987 323.228 399.981 323.912 399.168C324.14 398.871 324.435 398.622 324.775 398.439C325.116 398.256 325.495 398.143 325.887 398.106C326.085 398.095 326.283 398.122 326.469 398.185C326.656 398.247 326.826 398.344 326.97 398.47C327.115 398.596 327.229 398.748 327.308 398.917C327.386 399.085 327.426 399.267 327.426 399.45C328.232 398.343 329.275 397.401 330.49 396.682C333.815 395.029 335.02 397.394 335.485 399.894C336.693 399.455 338.003 399.312 339.289 399.477C339.609 399.539 339.913 399.662 340.179 399.838C340.446 400.013 340.67 400.239 340.838 400.499C341.006 400.759 341.114 401.049 341.154 401.349C341.195 401.65 341.168 401.955 341.075 402.246C340.668 403.039 339.623 403.429 339.231 404.248C339.106 404.689 339.023 405.139 338.984 405.592C338.789 406.253 338.387 406.846 337.829 407.295C337.271 407.745 336.581 408.032 335.848 408.119C334.385 408.268 332.905 408.149 331.492 407.77C332.087 409.275 330.562 410.941 328.849 411.237C327.102 411.381 325.352 410.989 323.869 410.122C324.185 410.462 324.344 410.903 324.312 411.351C324.279 411.799 324.057 412.216 323.694 412.514C323.316 412.797 322.877 413.002 322.406 413.115C321.935 413.229 321.444 413.248 320.965 413.173C319.688 413.056 318.48 412.588 317.494 411.829L317.581 412.783C315.941 413.858 311.846 409.45 310.554 408.374" fill="#A6E5BB"/>
<path opacity="0.25" d="M310.96 407.971C311.516 407.779 312.019 407.474 312.431 407.079C312.843 406.683 313.154 406.208 313.342 405.686C313.715 404.654 314.37 403.728 315.244 402.998C316.202 402.353 317.886 402.541 318.148 403.603C318.249 403.068 318.472 402.558 318.803 402.108C319.133 401.659 319.563 401.28 320.064 400.996C320.319 400.873 320.6 400.801 320.888 400.787C321.175 400.772 321.462 400.815 321.73 400.912C321.999 401.008 322.241 401.157 322.442 401.348C322.643 401.539 322.798 401.767 322.896 402.017C322.869 400.987 323.228 399.981 323.912 399.168C324.14 398.871 324.435 398.622 324.775 398.439C325.116 398.256 325.495 398.143 325.887 398.106C326.085 398.095 326.283 398.122 326.469 398.185C326.656 398.247 326.826 398.344 326.97 398.47C327.115 398.596 327.229 398.748 327.308 398.917C327.386 399.085 327.426 399.267 327.426 399.45C328.232 398.343 329.275 397.401 330.49 396.682C333.815 395.029 335.02 397.394 335.485 399.894C336.693 399.455 338.003 399.312 339.289 399.477C339.609 399.539 339.913 399.662 340.179 399.838C340.446 400.013 340.67 400.239 340.838 400.499C341.006 400.759 341.114 401.049 341.154 401.349C341.195 401.65 341.168 401.955 341.075 402.246C340.668 403.039 339.623 403.429 339.231 404.248C339.106 404.689 339.023 405.139 338.984 405.592C338.789 406.253 338.387 406.846 337.829 407.295C337.271 407.745 336.581 408.032 335.848 408.119C334.385 408.268 332.905 408.149 331.492 407.77C332.087 409.275 330.562 410.941 328.849 411.237C327.102 411.381 325.352 410.989 323.869 410.122C324.185 410.462 324.344 410.903 324.312 411.351C324.279 411.799 324.057 412.216 323.694 412.514C323.316 412.797 322.877 413.002 322.406 413.115C321.935 413.229 321.444 413.248 320.965 413.173C319.688 413.056 318.48 412.588 317.494 411.829L317.581 412.783C315.941 413.858 311.846 409.45 310.554 408.374" fill="black"/>
<path d="M331.971 403.496C326.468 406.184 318.467 407.232 312.34 407.434C306.289 407.566 300.245 406.993 294.349 405.727C282.733 403.361 270.842 399.007 263.175 390.419C262.609 389.787 261.273 390.674 261.621 391.386C264.525 397.327 270.783 400.405 276.795 403.079C282.018 405.301 287.485 406.995 293.101 408.133C299.076 409.504 305.229 410.092 311.381 409.88C318.133 409.584 327.194 408.159 332.493 403.832C332.798 403.59 332.203 403.388 331.971 403.496Z" fill="#A6E5BB"/>
<path d="M315.824 418.589C316.418 418.515 316.987 418.32 317.489 418.018C317.992 417.716 318.415 417.314 318.728 416.842C319.343 415.895 320.208 415.109 321.24 414.557C322.329 414.127 323.927 414.651 323.97 415.74C324.193 415.238 324.53 414.788 324.959 414.419C325.387 414.05 325.897 413.772 326.453 413.603C326.732 413.533 327.023 413.52 327.308 413.564C327.592 413.608 327.864 413.707 328.103 413.856C328.343 414.005 328.545 414.2 328.696 414.428C328.847 414.655 328.944 414.91 328.98 415.175C329.202 414.168 329.792 413.261 330.649 412.608C330.942 412.363 331.288 412.179 331.663 412.068C332.039 411.957 332.436 411.921 332.827 411.963C333.021 411.992 333.206 412.057 333.372 412.154C333.538 412.251 333.681 412.378 333.792 412.527C333.903 412.677 333.981 412.845 334.019 413.023C334.058 413.201 334.058 413.385 334.018 413.562C335.068 412.65 336.308 411.945 337.663 411.493C341.307 410.552 341.917 413.119 341.772 415.645C343.059 415.473 344.372 415.602 345.59 416.022C345.888 416.148 346.153 416.33 346.371 416.556C346.588 416.783 346.752 417.048 346.853 417.336C346.954 417.624 346.99 417.928 346.957 418.229C346.925 418.53 346.825 418.822 346.665 419.086C346.07 419.785 344.923 419.933 344.385 420.659C344.152 421.066 343.962 421.494 343.819 421.935C343.471 422.539 342.938 423.035 342.287 423.36C341.636 423.685 340.897 423.825 340.16 423.763C338.684 423.614 337.256 423.189 335.964 422.513C336.182 424.113 334.308 425.43 332.566 425.363C330.825 425.142 329.208 424.401 327.963 423.252C328.078 423.448 328.15 423.663 328.175 423.885C328.2 424.106 328.177 424.33 328.108 424.544C328.039 424.757 327.926 424.956 327.774 425.129C327.622 425.302 327.435 425.445 327.223 425.551C326.787 425.749 326.31 425.859 325.825 425.876C325.34 425.892 324.856 425.813 324.406 425.645C323.188 425.253 322.126 424.532 321.357 423.575L321.226 424.529C319.353 425.242 316.42 420.108 315.418 418.79" fill="#A6E5BB"/>
<path opacity="0.25" d="M315.824 418.589C316.418 418.515 316.987 418.32 317.489 418.018C317.992 417.716 318.415 417.314 318.728 416.842C319.343 415.895 320.208 415.109 321.24 414.557C322.329 414.127 323.927 414.651 323.97 415.74C324.193 415.238 324.53 414.788 324.959 414.419C325.387 414.05 325.897 413.772 326.453 413.603C326.732 413.533 327.023 413.52 327.308 413.564C327.592 413.608 327.864 413.707 328.103 413.856C328.343 414.005 328.545 414.2 328.696 414.428C328.847 414.655 328.944 414.91 328.98 415.175C329.202 414.168 329.792 413.261 330.649 412.608C330.942 412.363 331.288 412.179 331.663 412.068C332.039 411.957 332.436 411.921 332.827 411.963C333.021 411.992 333.206 412.057 333.372 412.154C333.538 412.251 333.681 412.378 333.792 412.527C333.903 412.677 333.981 412.845 334.019 413.023C334.058 413.201 334.058 413.385 334.018 413.562C335.068 412.65 336.308 411.945 337.663 411.493C341.307 410.552 341.917 413.119 341.772 415.645C343.059 415.473 344.372 415.602 345.59 416.022C345.888 416.148 346.153 416.33 346.371 416.556C346.588 416.783 346.752 417.048 346.853 417.336C346.954 417.624 346.99 417.928 346.957 418.229C346.925 418.53 346.825 418.822 346.665 419.086C346.07 419.785 344.923 419.933 344.385 420.659C344.152 421.066 343.962 421.494 343.819 421.935C343.471 422.539 342.938 423.035 342.287 423.36C341.636 423.685 340.897 423.825 340.16 423.763C338.684 423.614 337.256 423.189 335.964 422.513C336.182 424.113 334.308 425.43 332.566 425.363C330.825 425.142 329.208 424.401 327.963 423.252C328.078 423.448 328.15 423.663 328.175 423.885C328.2 424.106 328.177 424.33 328.108 424.544C328.039 424.757 327.926 424.956 327.774 425.129C327.622 425.302 327.435 425.445 327.223 425.551C326.787 425.749 326.31 425.859 325.825 425.876C325.34 425.892 324.856 425.813 324.406 425.645C323.188 425.253 322.126 424.532 321.357 423.575L321.226 424.529C319.353 425.242 316.42 420.108 315.418 418.79" fill="black"/>
<path d="M337.387 418.522C331.375 420.027 323.317 419.395 317.291 418.347C311.353 417.233 305.591 415.426 300.143 412.971C289.456 408.321 278.842 401.587 273.412 391.682C273.005 390.943 271.495 391.534 271.655 392.3C273.034 398.684 278.435 402.972 283.663 406.816C288.23 410.046 293.156 412.816 298.357 415.081C303.867 417.613 309.732 419.422 315.781 420.457C322.431 421.532 331.608 422.003 337.808 418.871C338.171 418.777 337.619 418.455 337.387 418.522Z" fill="#A6E5BB"/>
<path d="M605.992 496.124C618.407 484.405 625.696 436.693 613.586 427.406H551.992C539.897 436.693 547.171 484.391 559.572 496.124L559.92 496.447L560.341 496.823C560.698 497.153 561.077 497.462 561.474 497.75C561.564 497.829 561.661 497.901 561.764 497.965C562.069 498.194 562.374 498.409 562.708 498.624C563.218 498.969 563.751 499.283 564.305 499.565C574.469 505.021 591.066 505.021 601.273 499.565C601.836 499.279 602.38 498.96 602.899 498.611C603.204 498.422 603.48 498.207 603.771 498.006L604.134 497.737C604.526 497.441 604.874 497.146 605.223 496.85L605.716 496.406L605.992 496.124Z" fill="#797777"/>
<g opacity="0.5">
<path opacity="0.5" d="M605.992 496.124C618.407 484.405 625.696 436.693 613.586 427.406H551.992C539.897 436.693 547.171 484.391 559.572 496.124L559.92 496.447L560.341 496.823C560.698 497.153 561.077 497.462 561.474 497.75C561.564 497.829 561.661 497.901 561.764 497.965C562.069 498.194 562.374 498.409 562.708 498.624C563.218 498.969 563.751 499.283 564.305 499.565C574.469 505.021 591.066 505.021 601.273 499.565C601.836 499.279 602.38 498.96 602.899 498.611C603.204 498.422 603.48 498.207 603.771 498.006L604.134 497.737C604.526 497.441 604.874 497.146 605.223 496.85L605.716 496.406L605.992 496.124Z" fill="white"/>
</g>
<path d="M557.35 423.656C543.295 431.169 543.295 443.345 557.35 450.858C571.405 458.371 594.187 458.371 608.17 450.858C622.153 443.345 622.225 431.169 608.17 423.656C594.115 416.143 571.391 416.143 557.35 423.656Z" fill="#797777"/>
<g opacity="0.7">
<path opacity="0.7" d="M557.35 423.656C543.295 431.169 543.295 443.345 557.35 450.858C571.405 458.371 594.187 458.371 608.17 450.858C622.153 443.345 622.225 431.169 608.17 423.656C594.115 416.143 571.391 416.143 557.35 423.656Z" fill="white"/>
</g>
<path d="M564.102 427.271C553.778 432.781 553.778 441.732 564.102 447.243C574.426 452.753 591.153 452.753 601.476 447.243C611.8 441.732 611.8 432.781 601.476 427.271C591.153 421.76 574.426 421.747 564.102 427.271Z" fill="#797777"/>
<g opacity="0.2">
<path opacity="0.2" d="M564.102 427.271C553.778 432.781 553.778 441.732 564.102 447.243C574.426 452.753 591.153 452.753 601.476 447.243C611.8 441.732 611.8 432.781 601.476 427.271C591.153 421.76 574.426 421.747 564.102 427.271Z" fill="white"/>
</g>
<path d="M601.477 436.8C591.153 431.29 574.426 431.29 564.102 436.8C561.602 438.051 559.477 439.857 557.916 442.055C559.482 444.246 561.606 446.046 564.102 447.297C574.426 452.807 591.153 452.807 601.477 447.297C603.975 446.05 606.1 444.249 607.662 442.055C606.105 439.854 603.979 438.047 601.477 436.8V436.8Z" fill="#F5F5F5"/>
<path d="M576.792 421.68L585.635 415.86C585.635 415.86 592.895 380.728 586.622 365.568C580.35 350.408 568.85 350.515 563.39 354.561C557.931 358.606 560.908 371.293 563.158 378.645C565.859 387.475 574.484 427.029 568.414 441.087L576.792 421.68Z" fill="#51715B"/>
<g opacity="0.2">
<path opacity="0.2" d="M576.792 421.68L585.635 415.86C585.635 415.86 592.895 380.728 586.622 365.568C580.35 350.408 568.85 350.515 563.39 354.561C557.931 358.606 560.908 371.293 563.158 378.645C565.859 387.475 574.484 427.029 568.414 441.087L576.792 421.68Z" fill="black"/>
</g>
<path d="M578.549 417.594C578.39 417.532 578.259 417.42 578.179 417.277C578.099 417.135 578.076 416.971 578.114 416.815C585.272 386.763 570.476 358.835 570.331 358.552C570.248 358.391 570.237 358.206 570.3 358.037C570.362 357.868 570.494 357.728 570.666 357.647C570.839 357.567 571.038 357.552 571.222 357.605C571.406 357.659 571.561 357.777 571.652 357.934C571.797 358.216 586.84 386.575 579.551 417.07C579.506 417.246 579.388 417.399 579.222 417.494C579.056 417.59 578.856 417.621 578.665 417.581L578.549 417.594Z" fill="white"/>
<path d="M580.582 412.608C580.582 412.608 581.57 409.839 577.17 409.14C572.77 408.442 571.101 405.108 570.68 399.383C570.258 393.658 568.429 389.639 562.911 388.806C557.394 387.972 552.965 390.539 549.393 387.986C545.821 385.432 536.558 379.263 528.862 382.072C521.166 384.881 523.678 390.97 527.686 394.921C531.693 398.872 532.855 400.189 529.791 406.614C526.727 413.038 528.949 419.032 536.049 420.538C543.15 422.043 547.099 421.277 547.201 428.467C547.302 434.905 548.653 440.926 555.913 443.359C561.655 445.275 567.823 445.838 573.859 444.998C575.885 444.829 577.806 444.088 579.363 442.875C580.815 441.531 580.524 439.972 580.524 438.184V412.608H580.582Z" fill="#51715B"/>
<g opacity="0.1">
<path opacity="0.1" d="M580.582 412.608C580.582 412.608 581.57 409.839 577.17 409.14C572.77 408.442 571.101 405.108 570.68 399.383C570.258 393.658 568.429 389.639 562.911 388.806C557.394 387.972 552.965 390.539 549.393 387.986C545.821 385.432 536.558 379.263 528.862 382.072C521.166 384.881 523.678 390.97 527.686 394.921C531.693 398.872 532.855 400.189 529.791 406.614C526.727 413.038 528.949 419.032 536.049 420.538C543.15 422.043 547.099 421.277 547.201 428.467C547.302 434.905 548.653 440.926 555.913 443.359C561.655 445.275 567.823 445.838 573.859 444.998C575.885 444.829 577.806 444.088 579.363 442.875C580.815 441.531 580.524 439.972 580.524 438.184V412.608H580.582Z" fill="black"/>
</g>
<path d="M580.582 442.176C580.453 442.176 580.328 442.139 580.223 442.069C580.119 441.999 580.041 441.9 580.001 441.786C567.108 406.332 537.893 392.058 537.603 391.87C537.459 391.801 537.35 391.681 537.301 391.537C537.252 391.394 537.267 391.238 537.342 391.104C537.417 390.97 537.546 390.87 537.701 390.824C537.857 390.779 538.025 390.793 538.169 390.862C538.46 391.01 568.095 405.525 581.163 441.437C581.209 441.579 581.194 441.733 581.121 441.866C581.048 441.999 580.923 442.1 580.771 442.149L580.582 442.176Z" fill="white"/>
<path d="M562.069 411.264H561.924C553.502 409.49 540.013 410.444 539.883 410.458C539.721 410.47 539.56 410.423 539.437 410.326C539.313 410.229 539.235 410.09 539.222 409.94C539.208 409.791 539.26 409.642 539.365 409.527C539.469 409.413 539.619 409.341 539.781 409.329C540.347 409.329 553.589 408.348 562.2 410.162C562.356 410.2 562.49 410.293 562.574 410.421C562.658 410.548 562.685 410.701 562.65 410.847C562.615 410.966 562.54 411.071 562.435 411.146C562.33 411.221 562.202 411.262 562.069 411.264V411.264Z" fill="white"/>
<path d="M568.937 428.319C565.089 428.319 561.009 428.091 560.748 428.077C560.668 428.072 560.589 428.053 560.518 428.019C560.446 427.986 560.382 427.94 560.329 427.884C560.276 427.828 560.236 427.763 560.211 427.692C560.186 427.621 560.176 427.547 560.182 427.473C560.185 427.399 560.205 427.327 560.239 427.26C560.273 427.194 560.322 427.135 560.381 427.086C560.441 427.037 560.511 427 560.586 426.976C560.661 426.952 560.741 426.943 560.82 426.949C565.21 427.229 569.615 427.229 574.005 426.949C574.164 426.929 574.325 426.967 574.455 427.054C574.585 427.142 574.673 427.273 574.702 427.419C574.714 427.492 574.711 427.567 574.692 427.639C574.673 427.711 574.639 427.779 574.592 427.839C574.545 427.899 574.485 427.95 574.417 427.988C574.348 428.027 574.273 428.053 574.193 428.064C572.45 428.268 570.694 428.353 568.937 428.319Z" fill="white"/>
<path d="M558.12 407.111C557.96 407.101 557.812 407.033 557.706 406.922C557.6 406.812 557.545 406.667 557.553 406.52C557.847 402.46 558.761 398.46 560.269 394.639C560.297 394.57 560.341 394.508 560.396 394.455C560.451 394.402 560.517 394.36 560.59 394.331C560.663 394.302 560.742 394.287 560.821 394.287C560.901 394.287 560.979 394.301 561.053 394.33C561.128 394.355 561.197 394.394 561.256 394.444C561.314 394.495 561.361 394.556 561.394 394.624C561.426 394.692 561.444 394.765 561.445 394.839C561.446 394.913 561.431 394.987 561.401 395.055C559.95 398.767 559.065 402.648 558.773 406.587C558.768 406.661 558.746 406.733 558.71 406.8C558.675 406.867 558.625 406.926 558.564 406.975C558.503 407.023 558.433 407.06 558.357 407.084C558.28 407.107 558.2 407.116 558.12 407.111V407.111Z" fill="white"/>
<path d="M580.8 446.033C586.871 447.761 593.326 447.979 599.516 446.665C610.246 444.541 612.846 438.466 612.846 438.466C612.846 438.466 605.208 431.101 598.427 430.685C605.179 429.756 612.052 429.892 618.755 431.088C618.755 431.088 624.97 428.964 623.794 419.355C623.794 419.355 617.986 415.417 604.482 416.962C604.482 416.962 611.234 412.554 623.053 411.25C623.982 411.25 622.734 398.738 621.601 393.16C620.469 387.583 618.232 388.443 613.397 388.927C608.562 389.411 593.345 394.061 591.53 397.273C589.715 400.485 591.53 408.616 591.53 408.616C591.53 408.616 587.102 405.229 586.114 401.157C582.719 401.438 579.498 402.672 576.88 404.692C572.611 408.038 573.845 410.148 575.239 413.468C576.601 416.838 578.484 420.007 580.829 422.876C580.829 422.876 576.284 421.371 571.986 411.358C571.986 411.358 567.514 419.019 566.73 424.502C565.946 429.986 571.565 441.558 580.8 446.033Z" fill="#51715B"/>
<path d="M581.032 446.558C581.14 446.518 581.233 446.452 581.302 446.367C581.371 446.281 581.414 446.18 581.424 446.074C583.036 427.459 605.803 398.375 615.866 392.529C615.933 392.489 615.992 392.437 616.038 392.377C616.084 392.316 616.117 392.248 616.135 392.175C616.152 392.103 616.154 392.028 616.14 391.955C616.127 391.882 616.097 391.812 616.054 391.749C616.012 391.687 615.956 391.632 615.89 391.59C615.825 391.547 615.751 391.517 615.673 391.5C615.594 391.484 615.513 391.482 615.434 391.495C615.355 391.508 615.28 391.535 615.212 391.575C605.048 397.515 581.816 427.07 580.205 445.993C580.193 446.141 580.244 446.287 580.347 446.4C580.45 446.513 580.597 446.584 580.756 446.598C580.85 446.599 580.943 446.585 581.032 446.558V446.558Z" fill="white"/>
<path d="M603.437 257.847L597.542 261.005L450.091 182.206L455.986 179.048L603.437 257.847Z" fill="#455A64"/>
<path d="M455.986 179.048L597.541 254.702V134.266L455.986 58.6121V179.048Z" fill="#A6E5BB"/>
<g opacity="0.8">
<path opacity="0.8" d="M455.986 179.048L597.541 254.702V134.266L455.986 58.6121V179.048Z" fill="white"/>
</g>
<path d="M523.809 91.7147V218.454L517.914 215.309V88.5697L523.809 91.7147Z" fill="#37474F"/>
<path d="M526.771 90.1287L523.809 91.7146V218.454L526.771 216.868V90.1287Z" fill="#263238"/>
<path d="M523.809 91.7148L517.914 88.5698L520.861 86.9839L526.771 90.1288L523.809 91.7148Z" fill="#FAFAFA"/>
<path d="M444.196 185.351L603.437 270.453V131.107L444.196 46.0051V185.351ZM450.12 55.4669L597.542 134.266V261.005L450.12 182.206V55.4669Z" fill="#37474F"/>
<path d="M450.091 182.206L455.986 179.048V58.6119L450.091 55.4669V182.206Z" fill="#263238"/>
<path d="M444.196 46.0052L450.091 42.8602L609.332 127.962L603.437 131.107L444.196 46.0052Z" fill="#455A64"/>
<path d="M609.332 127.962L603.437 131.107V270.453L609.332 267.308V127.962Z" fill="#263238"/>
<path d="M523.809 94.8596L517.928 91.7146V94.873L523.809 98.018V94.8596Z" fill="#263238"/>
<path d="M523.809 98.018L526.771 96.4321L523.809 94.8596V98.018Z" fill="black"/>
</svg>
