<svg width="42" height="50" viewBox="0 0 42 50" fill="none" xmlns="http://www.w3.org/2000/svg">
<path d="M37.5 25C36.3542 25 35.4167 25.9375 35.4167 27.0833V37.9583C35.4167 39.1042 34.4792 40.0417 33.3333 40.0417H12.5C11.3542 40.0417 10.4167 39.1042 10.4167 37.9583V16.6667C10.4167 15.5208 11.3542 14.5833 12.5 14.5833H22.9167C24.0625 14.5833 25 13.6458 25 12.5C25 11.3542 24.0625 10.4167 22.9167 10.4167H10.4167C8.125 10.4167 6.25 12.2917 6.25 14.5833V39.5833C6.25 41.875 8.125 43.75 10.4167 43.75H35.4167C37.7083 43.75 39.5833 41.875 39.5833 39.5833V27.0833C39.5833 25.9375 38.6458 25 37.5 25ZM43.7917 10.4167H39.5833V6.20833C39.5833 5.08333 38.6667 4.16667 37.5417 4.16667H37.4792C36.3333 4.16667 35.4167 5.08333 35.4167 6.20833V10.4167H31.2292C30.1042 10.4167 29.1875 11.3333 29.1667 12.4583V12.5208C29.1667 13.6667 30.0833 14.5833 31.2292 14.5833H35.4167V18.7708C35.4167 19.8958 36.3333 20.8333 37.4792 20.8125H37.5417C38.6667 20.8125 39.5833 19.8958 39.5833 18.7708V14.5833H43.7917C44.9167 14.5833 45.8333 13.6667 45.8333 12.5417V12.4583C45.8333 11.3333 44.9167 10.4167 43.7917 10.4167Z" fill="white"/>
<path d="M29.1667 18.75H16.6667C15.5208 18.75 14.5833 19.6875 14.5833 20.8333C14.5833 21.9792 15.5208 22.9167 16.6667 22.9167H29.1667C30.3125 22.9167 31.25 21.9792 31.25 20.8333C31.25 19.6875 30.3125 18.75 29.1667 18.75ZM29.1667 25H16.6667C15.5208 25 14.5833 25.9375 14.5833 27.0833C14.5833 28.2292 15.5208 29.1667 16.6667 29.1667H29.1667C30.3125 29.1667 31.25 28.2292 31.25 27.0833C31.25 25.9375 30.3125 25 29.1667 25ZM29.1667 31.25H16.6667C15.5208 31.25 14.5833 32.1875 14.5833 33.3333C14.5833 34.4792 15.5208 35.4167 16.6667 35.4167H29.1667C30.3125 35.4167 31.25 34.4792 31.25 33.3333C31.25 32.1875 30.3125 31.25 29.1667 31.25Z" fill="white"/>
</svg>
