<svg width="42" height="50" viewBox="0 0 42 50" fill="none" xmlns="http://www.w3.org/2000/svg">
<path d="M29.6875 20.3125H40.625V23.4375H29.6875V20.3125Z" fill="white"/>
<path d="M29.6875 12.5H46.875V15.625H29.6875V12.5Z" fill="white"/>
<path d="M29.6875 4.6875H46.875V7.8125H29.6875V4.6875Z" fill="white"/>
<path d="M17.1875 46.875H10.9375C10.1095 46.8725 9.31603 46.5425 8.73052 45.957C8.145 45.3715 7.81497 44.578 7.81249 43.75V32.8125C6.98445 32.81 6.19103 32.48 5.60552 31.8945C5.02 31.309 4.68997 30.5155 4.68749 29.6875V20.3125C4.67605 19.6938 4.78947 19.0791 5.02098 18.5052C5.2525 17.9313 5.59735 17.41 6.03493 16.9724C6.47251 16.5349 6.99382 16.19 7.56771 15.9585C8.1416 15.727 8.75627 15.6135 9.37499 15.625H18.75C19.3687 15.6135 19.9834 15.727 20.5573 15.9585C21.1312 16.19 21.6525 16.5349 22.0901 16.9724C22.5276 17.41 22.8725 17.9313 23.104 18.5052C23.3355 19.0791 23.4489 19.6938 23.4375 20.3125V29.6875C23.435 30.5155 23.105 31.309 22.5195 31.8945C21.934 32.48 21.1405 32.81 20.3125 32.8125V43.75C20.31 44.578 19.98 45.3715 19.3945 45.957C18.809 46.5425 18.0155 46.8725 17.1875 46.875V46.875ZM9.37499 18.75C9.16654 18.7375 8.95779 18.7693 8.76254 18.8434C8.56729 18.9175 8.38998 19.0321 8.24231 19.1798C8.09464 19.3275 7.97998 19.5048 7.90589 19.7C7.83179 19.8953 7.79996 20.104 7.81249 20.3125V29.6875H10.9375V43.75H17.1875V29.6875H20.3125V20.3125C20.325 20.104 20.2932 19.8953 20.2191 19.7C20.145 19.5048 20.0303 19.3275 19.8827 19.1798C19.735 19.0321 19.5577 18.9175 19.3625 18.8434C19.1672 18.7693 18.9585 18.7375 18.75 18.75H9.37499Z" fill="white"/>
<path d="M14.0625 14.0625C12.8264 14.0625 11.618 13.6959 10.5902 13.0092C9.56238 12.3224 8.7613 11.3463 8.28826 10.2043C7.81521 9.06223 7.69144 7.80557 7.93259 6.59318C8.17375 5.3808 8.76901 4.26716 9.64308 3.39308C10.5172 2.519 11.6308 1.92375 12.8432 1.68259C14.0556 1.44143 15.3122 1.5652 16.4543 2.03825C17.5963 2.5113 18.5724 3.31238 19.2592 4.34018C19.9459 5.36799 20.3125 6.57637 20.3125 7.8125C20.3076 9.46858 19.6475 11.0554 18.4765 12.2265C17.3054 13.3975 15.7186 14.0576 14.0625 14.0625V14.0625ZM14.0625 4.6875C13.4444 4.6875 12.8402 4.87078 12.3263 5.21416C11.8124 5.55754 11.4119 6.04559 11.1754 6.61661C10.9389 7.18763 10.877 7.81597 10.9975 8.42216C11.1181 9.02835 11.4158 9.58517 11.8528 10.0222C12.2898 10.4592 12.8467 10.7569 13.4528 10.8775C14.059 10.998 14.6874 10.9361 15.2584 10.6996C15.8294 10.4631 16.3175 10.0626 16.6608 9.54866C17.0042 9.03475 17.1875 8.43057 17.1875 7.8125C17.185 6.98446 16.855 6.19104 16.2695 5.60552C15.684 5.02001 14.8905 4.68997 14.0625 4.6875V4.6875Z" fill="white"/>
</svg>
